<?xml version="1.0" encoding="utf-8"?>
<!-- Generator: Adobe Illustrator 19.1.0, SVG Export Plug-In . SVG Version: 6.00 Build 0)  -->
<!DOCTYPE svg PUBLIC "-//W3C//DTD SVG 1.1//EN" "http://www.w3.org/Graphics/SVG/1.1/DTD/svg11.dtd">
<svg version="1.1" id="Layer_1" xmlns="http://www.w3.org/2000/svg" xmlns:xlink="http://www.w3.org/1999/xlink" x="0px" y="0px"
	 viewBox="-23 -36 120 60" style="enable-background:new -23 -36 120 60;" xml:space="preserve">
<style type="text/css">
	.st0{fill:#BBBBBB;}
</style>
<path class="st0" d="M37.8-14.8V1.5h-2.1v-7.4l-7.6-7L20.5-6v7.5h-2.3V-11L10.9-21l-7.6,10V1.6H-5v0.7h9.1v-13.2
	c0.1-0.2,6.2-8.2,6.8-8.9c0.6,0.8,6.4,8.7,6.5,8.9V2.4h4v-7.9c0.2-0.2,6.3-5.6,6.8-6.2c0.5,0.4,6.5,6.1,6.8,6.3v7.8h3.7v-17.1
	c0.1-0.1,6-13,6.6-14.4c0.7,1.4,6.9,14.3,7,14.5c0,0.2-0.1,16.8-0.1,16.8h3.9v-11c0.2-0.2,6.1-7.4,6.7-8.1c0.6,0.7,6.6,7.9,6.8,8.2
	V2.3h9.3V1.4h-8.5V-8.9l-7.6-9.2L55.1-9V1.4h-2.2c0-0.7,0.1-16.2,0.1-16.2L45.2-31C45.3-30.9,37.8-14.8,37.8-14.8z M-3.3,11.1h-1.4
	c0.1-0.5,0.3-1,0.6-1.4C-3.6,9.3-3,9-2.2,9c0.6,0,1.2,0.2,1.6,0.6C-0.2,10,0,10.4,0,10.9c0,0.3-0.1,0.6-0.3,0.9
	c-0.2,0.3-0.4,0.5-0.8,0.6c0.4,0.1,0.8,0.4,1,0.7c0.3,0.3,0.4,0.7,0.4,1.3c0,0.6-0.2,1.3-0.7,1.7c-0.5,0.4-1.2,0.7-1.9,0.7
	s-1.4-0.2-1.8-0.6c-0.4-0.4-0.7-1-0.7-1.8h1.5c0.1,0.4,0.2,0.7,0.4,0.8c0.2,0.1,0.4,0.3,0.8,0.3c0.3,0,0.6-0.1,0.8-0.3
	S-1,14.9-1,14.6c0-0.3-0.1-0.6-0.4-0.8s-0.7-0.3-1.3-0.3v-1.3c0.3,0,0.6-0.1,0.7-0.1c0.2-0.1,0.3-0.2,0.4-0.3s0.1-0.3,0.1-0.4
	c0-0.2-0.1-0.4-0.2-0.5c-0.1-0.1-0.3-0.2-0.5-0.2s-0.4,0.1-0.5,0.2C-3.1,10.7-3.3,10.8-3.3,11.1z M2.8,9v2.8
	c0.2-0.2,0.5-0.4,0.8-0.5s0.6-0.2,0.9-0.2c0.7,0,1.4,0.3,1.9,0.8C7,12.4,7.2,13.1,7.2,14s-0.3,1.6-0.7,2.1c-0.5,0.5-1.2,0.8-1.9,0.8
	c-0.3,0-0.6-0.1-0.9-0.2s-0.5-0.3-0.8-0.5v0.6H1.4V9.1C1.4,9.1,2.8,9,2.8,9z M4.2,12.3c-0.4,0-0.8,0.1-1,0.4
	c-0.3,0.3-0.4,0.7-0.4,1.2s0.1,0.9,0.4,1.3c0.3,0.3,0.6,0.4,1,0.4s0.7-0.1,1-0.4c0.3-0.3,0.4-0.7,0.4-1.2c0-0.5-0.1-0.8-0.4-1.2
	C5,12.4,4.7,12.3,4.2,12.3z M7.6,11.2h1.5l1.5,3.6l1.6-3.6h1.5L10,18.8H8.6l1.2-2.5C9.8,16.3,7.6,11.2,7.6,11.2z M18.6,11.2H20V16
	c0,0.9-0.2,1.7-0.6,2.1C18.8,18.7,18.1,19,17,19c-0.5,0-1-0.1-1.4-0.2c-0.4-0.1-0.7-0.3-0.9-0.6c-0.3-0.3-0.4-0.6-0.6-0.9h1.6
	c0.1,0.1,0.3,0.3,0.5,0.3c0.2,0.1,0.4,0.1,0.7,0.1c0.4,0,0.6-0.1,0.9-0.2c0.2-0.1,0.4-0.3,0.5-0.4c0.1-0.2,0.1-0.5,0.1-0.9
	c-0.2,0.2-0.5,0.4-0.7,0.5c-0.3,0.1-0.6,0.1-0.9,0.1c-0.7,0-1.4-0.3-1.9-0.8c-0.5-0.5-0.7-1.3-0.7-2.1c0-0.9,0.3-1.6,0.8-2.2
	c0.5-0.5,1-0.7,1.8-0.7c0.3,0,0.6,0.1,0.9,0.2c0.3,0.1,0.6,0.3,0.8,0.6C18.6,11.7,18.6,11.2,18.6,11.2z M17.1,12.3
	c-0.4,0-0.8,0.1-1,0.4c-0.3,0.3-0.4,0.6-0.4,1.2c0,0.4,0.1,0.8,0.4,1.2s0.6,0.4,1.2,0.4c0.4,0,0.8-0.1,1-0.4
	c0.3-0.3,0.4-0.6,0.4-1.2c0-0.4-0.1-0.8-0.4-1.2C17.9,12.5,17.5,12.3,17.1,12.3z M25.5,11.2h1.4V16c0,0.9-0.2,1.7-0.6,2.1
	C25.7,18.7,25,19,23.9,19c-0.5,0-1-0.1-1.4-0.2c-0.4-0.1-0.7-0.3-0.9-0.6c-0.3-0.3-0.4-0.6-0.6-0.9h1.6c0.1,0.1,0.3,0.3,0.5,0.3
	c0.2,0.1,0.4,0.1,0.7,0.1c0.4,0,0.6-0.1,0.9-0.2c0.2-0.1,0.4-0.3,0.5-0.4c0.1-0.2,0.1-0.5,0.1-0.9c-0.2,0.2-0.5,0.4-0.7,0.5
	c-0.3,0.1-0.6,0.1-0.9,0.1c-0.7,0-1.4-0.3-1.9-0.8c-0.5-0.5-0.7-1.3-0.7-2.1c0-0.9,0.3-1.6,0.8-2.2c0.5-0.5,1-0.7,1.8-0.7
	c0.3,0,0.6,0.1,0.9,0.2c0.3,0.1,0.6,0.3,0.8,0.6C25.5,11.7,25.5,11.2,25.5,11.2z M24,12.3c-0.4,0-0.8,0.1-1,0.4
	c-0.3,0.3-0.4,0.6-0.4,1.2c0,0.4,0.1,0.8,0.4,1.2s0.6,0.4,1.2,0.4c0.4,0,0.8-0.1,1-0.4c0.3-0.3,0.4-0.6,0.4-1.2
	c0-0.4-0.1-0.8-0.4-1.2C24.9,12.5,24.6,12.3,24,12.3z M34,14.4h-4.5c0.1,0.4,0.2,0.7,0.5,0.9s0.6,0.3,1,0.3c0.5,0,0.9-0.2,1.4-0.5
	l1.2,0.5c-0.3,0.4-0.6,0.7-1,0.9c-0.4,0.2-0.9,0.3-1.5,0.3c-0.8,0-1.6-0.3-2.2-0.8C28.3,15.5,28,14.8,28,14c0-0.8,0.3-1.6,0.8-2.1
	c0.5-0.5,1.3-0.8,2.1-0.8c0.8,0,1.6,0.3,2.2,0.8c0.5,0.5,0.8,1.3,0.8,2.2C34,14.1,34,14.4,34,14.4z M32.5,13.2
	c-0.1-0.3-0.3-0.5-0.5-0.7c-0.3-0.2-0.6-0.3-0.9-0.3s-0.7,0.1-1,0.3c-0.2,0.1-0.3,0.4-0.5,0.7H32.5z M35.2,9.1h1.4v2.1h0.8v1.3h-0.8
	v4.4h-1.4v-4.4h-0.7v-1.3h0.7V9.1z M38.8,8.9c0.2,0,0.4,0.1,0.6,0.3c0.2,0.2,0.3,0.4,0.3,0.6s-0.1,0.4-0.3,0.6
	c-0.2,0.2-0.4,0.3-0.6,0.3s-0.4-0.1-0.6-0.3c-0.2-0.2-0.3-0.4-0.3-0.6s0.1-0.4,0.3-0.6C38.4,9,38.6,8.9,38.8,8.9z M38,11.2h1.4v5.5
	H38V11.2z M40.6,9h1.4v7.7h-1.4C40.6,16.7,40.6,9,40.6,9z M44.7,9v2.8c0.2-0.2,0.5-0.4,0.8-0.5s0.6-0.2,0.9-0.2
	c0.7,0,1.4,0.3,1.9,0.8c0.5,0.5,0.7,1.3,0.7,2.1s-0.3,1.6-0.7,2.1c-0.5,0.5-1.2,0.8-1.9,0.8c-0.3,0-0.6-0.1-0.9-0.2
	c-0.3-0.1-0.5-0.3-0.8-0.5v0.6h-1.5V9.1C43.3,9.1,44.7,9,44.7,9z M46.2,12.3c-0.4,0-0.8,0.1-1,0.4c-0.3,0.3-0.4,0.7-0.4,1.2
	s0.1,0.9,0.4,1.3c0.3,0.3,0.6,0.4,1,0.4c0.4,0,0.7-0.1,1-0.4c0.3-0.3,0.4-0.7,0.4-1.2c0-0.5-0.1-0.8-0.4-1.2
	C46.9,12.4,46.6,12.3,46.2,12.3z M50.3,11.2h1.5v2.7c0,0.5,0,0.9,0.1,1c0.1,0.2,0.2,0.3,0.3,0.4c0.1,0.1,0.3,0.2,0.6,0.2
	c0.2,0,0.4,0,0.6-0.1c0.1-0.1,0.3-0.3,0.3-0.5c0.1-0.1,0.1-0.5,0.1-1v-2.7h1.4v2.4c0,0.9-0.1,1.7-0.2,2c-0.2,0.4-0.4,0.7-0.8,1
	c-0.3,0.2-0.8,0.3-1.4,0.3c-0.6,0-1.2-0.1-1.5-0.4c-0.3-0.3-0.6-0.6-0.8-1.2c-0.1-0.3-0.1-0.9-0.1-1.9L50.3,11.2L50.3,11.2z M60.7,9
	h1.4v7.7h-1.4v-0.6c-0.3,0.3-0.5,0.4-0.8,0.5s-0.6,0.2-0.9,0.2c-0.7,0-1.4-0.3-1.9-0.8c-0.5-0.5-0.7-1.3-0.7-2.1
	c0-0.8,0.2-1.6,0.7-2.1c0.5-0.5,1.2-0.8,1.9-0.8c0.3,0,0.6,0.1,0.9,0.2s0.5,0.3,0.8,0.5C60.7,11.7,60.7,9,60.7,9z M59.2,12.3
	c-0.4,0-0.8,0.1-1,0.4c-0.3,0.3-0.4,0.7-0.4,1.2s0.1,0.8,0.4,1.2c0.3,0.3,0.6,0.4,1,0.4c0.4,0,0.8-0.1,1-0.4
	c0.2-0.3,0.4-0.7,0.4-1.3c0-0.5-0.1-0.9-0.4-1.2C60,12.4,59.7,12.3,59.2,12.3z M64.3,15.2c0.2,0,0.4,0.1,0.6,0.2
	c0.1,0.1,0.2,0.3,0.2,0.6c0,0.2-0.1,0.4-0.2,0.6c-0.1,0.1-0.3,0.2-0.6,0.2c-0.2,0-0.4-0.1-0.6-0.2c-0.1-0.1-0.2-0.3-0.2-0.6
	c0-0.2,0.1-0.4,0.2-0.6C63.9,15.3,64.1,15.2,64.3,15.2z M70.6,9h1.4v7.7h-1.4v-0.6c-0.3,0.3-0.5,0.4-0.8,0.5s-0.6,0.2-0.9,0.2
	c-0.7,0-1.4-0.3-1.9-0.8c-0.5-0.5-0.7-1.3-0.7-2.1c0-0.8,0.2-1.6,0.7-2.1c0.5-0.5,1.2-0.8,1.9-0.8c0.3,0,0.6,0.1,0.9,0.2
	s0.5,0.3,0.8,0.5C70.6,11.7,70.6,9,70.6,9z M69.1,12.3c-0.4,0-0.8,0.1-1,0.4c-0.3,0.3-0.4,0.7-0.4,1.2s0.1,0.8,0.4,1.2
	c0.3,0.3,0.6,0.4,1,0.4s0.8-0.1,1-0.4c0.2-0.3,0.4-0.7,0.4-1.3c0-0.5-0.1-0.9-0.4-1.2C70,12.4,69.5,12.3,69.1,12.3z M73.4,9h1.4v4.5
	l2.1-2.3h1.8l-2.4,2.7l2.7,2.9h-1.8l-2.4-2.6v2.6h-1.4C73.4,16.8,73.4,9,73.4,9z"/>
</svg>
