<?xml version="1.0" encoding="utf-8"?>
<!-- Generator: Adobe Illustrator 19.1.0, SVG Export Plug-In . SVG Version: 6.00 Build 0)  -->
<!DOCTYPE svg PUBLIC "-//W3C//DTD SVG 1.1//EN" "http://www.w3.org/Graphics/SVG/1.1/DTD/svg11.dtd">
<svg version="1.1" id="Layer_1" xmlns="http://www.w3.org/2000/svg" xmlns:xlink="http://www.w3.org/1999/xlink" x="0px" y="0px"
	 viewBox="20 -56 120 60" style="enable-background:new 20 -56 120 60;" xml:space="preserve">
<style type="text/css">
	.st0{fill:#BBBBBB;}
</style>
<g>
	<path class="st0" d="M73.9-8.7c0,0.6,0.3,1.1,0.9,1.1c1.3,0,1.1-2,1.2-2.2c0-0.1,0-0.1,0-0.1c0-0.6-0.4-0.9-1-0.9
		C74.2-10.8,73.9-9.4,73.9-8.7z"/>
	<path class="st0" d="M101.2-10.6c-0.1,0-0.2,0-0.3,0c-1,0-1.8,1.2-1.8,3c0,0.1,0,0.1,0,0.1v0.1l0,0c1.5-0.2,2.8-0.7,2.8-1.9
		c0-0.1,0-0.1,0-0.2C102-10.2,101.6-10.6,101.2-10.6z"/>
	<path class="st0" d="M71.9-4.6c0,0.8,0.8,1.2,2.1,1.2c1.3,0,2.2,0,2.2-1v-0.1c0-0.5-1.4-0.3-3.6-1C72.2-5.5,71.9-5,71.9-4.6z"/>
	<path class="st0" d="M61.9-10.1C61.8-10.1,61.8-10.1,61.9-10.1h-1.1c-0.5,2.5-0.5,3.3-0.5,3.7c0,0.1,0,0.1,0,0.1
		c0,0.3,0.2,0.8,1,0.8c0.2,0,0.3,0.1,0.5,0.1c0.8,0,1.3-0.2,1.7-0.6s0.6-1,0.6-1.8C64-9,63.4-10.1,61.9-10.1z"/>
	<path class="st0" d="M69.6-10.8C69.5-10.8,69.5-10.8,69.6-10.8c-1.8,0-1.9,2.6-1.9,3.8V-7c0,0.9,0.3,1.8,1.2,1.8
		c1.8,0,1.9-2.8,2-3.9v-0.1h-0.2C70.7-10.1,70.4-10.7,69.6-10.8z"/>
	<path class="st0" d="M80.4-8.7c-0.4,0.3-0.9,0.5-0.9,1.3c0,1,0.8,2.1,1.7,2.1c0.7,0,1.1-0.3,1.5-0.5C81.8-7.3,81.3-7.9,80.4-8.7z"
		/>
	<path class="st0" d="M61.4-10.3c1.8,0,2.6-0.5,2.8-2.3c0-0.1,0-0.3,0-0.3c-0.1-0.5-0.2-0.8-0.4-1.1s-0.7-0.4-1.4-0.4
		c-0.1,0-0.2,0-0.2,0c-0.2,0-0.3,0-0.5,0.1l-0.7,4H61.4L61.4-10.3z"/>
	<path class="st0" d="M93.9-10.7C93.9-10.7,93.9-10.7,93.9-10.7c-1.4,0-1.8,3.9-1.8,4.4c0,0.8,0.6,1,0.8,1c0,0,0,0,0.1,0
		c1.1-0.1,1.8-1.8,2-3.6c0-0.1,0-0.3,0-0.3C94.9-9.9,94.8-10.6,93.9-10.7z"/>
	<path class="st0" d="M103.9-51H56.2c-1,0-1.8,0.8-1.8,1.8v46.5c0,1,0.8,1.8,1.8,1.8c19.7,0,32.2,0,47.7,0c1,0,1.8-0.8,1.8-1.8
		v-46.5C105.6-50.3,104.9-51,103.9-51z M81.8-41.4c4.2,0,7.5,3.6,7.5,7.9s-3.3,7.9-7.5,7.9s-7.5-3.6-7.5-7.9S77.6-41.4,81.8-41.4z
		 M92.2-29.4c2.8,0.1,5,2.4,4.9,5.3c0,2.9-2.2,5.3-4.9,5.3s-4.9-2.4-4.9-5.3C87.2-27,89.4-29.4,92.2-29.4z M91-32.6
		c0-0.9,0.7-1.6,1.6-1.6s1.6,0.7,1.6,1.6c0,0.8-0.8,1.6-1.6,1.6C91.7-31,91-31.8,91-32.6z M89-14.7c0.8,0,1.3,0.7,1.3,1.4
		c0,0.8-0.6,1.4-1.3,1.4c-0.8-0.1-1.3-0.7-1.3-1.4C87.6-14,88.3-14.7,89-14.7z M85.8-15.2c-1.5-0.1-2.7-1.3-2.7-2.8
		c0-1.4,1.3-2.7,2.7-2.7c1.4,0,2.7,1.2,2.7,2.7C88.4-16.3,87.3-15.2,85.8-15.2z M64.9-5.7c-0.5,0.3-1.5,0.6-2.7,0.6
		c-1,0-2-0.1-3-0.1c-0.3,0-0.7,0-0.9,0c-0.3,0-0.8,0-1,0c-0.2,0-0.5,0.1-0.4-0.2c0.2-0.3,1.3,0.1,1.6-1.1c1.3-6.3,1-6.7,1-7.3
		c0-0.9-1.2-0.5-1.2-0.8c0-0.2,0.2-0.2,0.5-0.2c0.6,0,1.3-0.1,2.3-0.1c0.8,0,0.8-0.1,1.4-0.1c2.5,0,3.3,1.2,3.3,2.2
		c-0.1,1.1-0.3,1.8-2.3,2.3l-0.1,0.3c1.8,0.2,2.3,1.1,2.4,2C66-7.2,65.6-6.2,64.9-5.7z M68.8-5c-1.6,0-2.8-1.2-2.8-2.8
		c0-1.5,1.4-3.3,3.5-3.3c1.6,0,2.7,1.2,2.8,2.8C72.4-6.7,70.8-5,68.8-5z M77.1-10.9c-0.3,0-0.7-0.6-0.9-0.6c-0.3,0-0.6,0.3-0.6,0.5
		c1.1,0.3,1.8,0.8,1.8,1.6c0,1.4-0.9,1.9-2.6,1.9c-0.8,0-1.7-0.3-1.7,0.3c0,1.2,4.3,0.3,4.3,2.2c0,1.4-1.4,1.8-3.4,1.8
		c-1.4-0.1-2.3-0.7-2.5-1.1c-0.2-0.4,0.2-1,0.8-1.4c-0.4-0.4-0.2-0.2-0.3-0.6C72-7,72.5-7.6,73.5-7.8h-0.2C73-8.1,72.5-8.1,72.5-9
		s0.8-1.9,2.6-1.9l0.2-0.1c0.4-0.9,1.3-1.3,1.9-1.3c0.5,0,0.7,0.3,0.7,0.7C77.8-11.2,77.6-10.9,77.1-10.9z M86.4-6.2
		c0,0.3-0.2,0.4-0.4,0.7C85.7-5.2,85-5,84.6-5.1c-0.7-0.1-1.3,0-1.8-0.8c-0.5,0.4-1.3,0.8-2.6,0.8c-1,0-1.9-0.7-2-1.7
		c-0.1-1.4,1.6-2.1,2-2.2c-0.3-0.4-0.6-0.8-0.5-1.4c0.2-1.1,1-1.8,2.3-1.7c1,0,1.8,0.7,1.8,1.4c0,1.1-1,1.3-1.7,1.6
		c0.8,0.7,0.7,1,1.5,1.8c0.2-0.2,0.7-0.8,0.7-1.3c0-0.9-0.9-0.6-0.9-0.9c0-0.1,0.1-0.2,0.3-0.2c0.3,0,0.6,0,1.1,0c0.6,0,0.7,0,1.1,0
		c0.1,0,0.3,0.1,0.3,0.1c0,0.2-0.6,0.1-1,0.5c-0.4,0.4-0.8,1.3-1.3,2c0.5,1,0.8,1,1.4,1.1c0.4,0.1,0.5-0.2,0.7-0.3
		c0.3-0.3,0.3-0.8,0.3-0.8C86.4-6.8,86.4-6.5,86.4-6.2z M101-5.8c1.3,0,1.5-0.9,1.7-0.9c0.1,0,0.1,0.1,0.1,0.2S102-5,100-5
		c-1.3,0-2.2-1-2.3-2.1C97.7-6.9,97-5,95.5-5c-0.7,0-1-0.8-0.9-1.3c0.1-0.3-0.1-0.2,0-0.3v-0.3c-0.2,1.1-1,2-2.6,1.8
		c-0.6-0.1-1.4-0.6-1.4-1.8c-0.1,0.3-0.6,1.7-1.9,1.7c-0.7,0-1-0.5-1-1.2c0-0.8,0.5-2.6,0.5-3.2c0-0.3-0.2-0.3-0.2-0.3
		c-0.2-0.1-0.3-0.2-0.3-0.2L87.5-10c-0.1,0-0.3-0.2-0.3-0.2s0.5-0.3,1.2-0.4c0.6-0.2,0.8-0.3,1.3-0.5c0.3-0.1,0,0.6,0,1.3
		c0,0.8-0.6,3-0.6,3.6c0,0.3,0.2,0.4,0.3,0.4c0.3,0,0.4-0.2,0.6-0.6c0.2-0.3,0.3-0.7,0.4-0.7c0,0,0,0,0.1,0l0,0c0.2-2.2,1.8-4,3-3.9
		c1.1,0.1,1.2,0.3,1.6,0.9c0.5-2.3,0.5-2.2,0.5-2.7c0-0.8-0.6-0.8-0.8-1.1c-0.2-0.2,0.7-0.3,2.7-0.9c-1.3,7.1-1.3,7.7-1.3,8
		c-0.1,0.3-0.1,0.8,0.2,0.9c0.4,0.3,0.6-0.3,0.8-0.6c0.2-0.4,0.5-1.3,0.6-1.3c0-1.8,1.6-3.3,3.4-3.3c1,0,1.9,0.7,1.9,1.4
		c0,1.5-2.4,1.8-3.8,2C99.3-6.5,100-5.8,101-5.8z M102.6-12.6l-1.7,1l-0.4,0.2l1.2-2.2c0.3-0.3,0.6-0.3,0.8-0.3
		c0.3,0,0.7,0.4,0.7,0.8C103.1-13,102.9-12.7,102.6-12.6z M104.4-39.7c-0.7,1.3-3.7,4.5-8.5,4.5c-1,0-2.1-0.2-3.3-0.5
		c-4.2-1.2-6.8-5.3-6.8-9.7c0-1.6,0.4-3.1,1.1-4.6c0,0,1.7,0,3.9,0c2.3,0,5.2,0,7.8,0c1.8,0,3.5,0,4.8,0c0.7,0,1.1,0.5,1.1,1.4
		C104.4-48.5,104.4-39.7,104.4-39.7z"/>
	<path class="st0" d="M83.3-10.5c0.1-0.7-0.4-1.2-1.3-1.3c-0.1,0-0.1,0-0.2,0c-0.8,0-1.1,0.3-1.1,1c0,0.7,0.3,0.9,1,1.7
		C82.7-9.3,83.3-9.6,83.3-10.5z"/>
</g>
</svg>
