<?xml version="1.0" encoding="utf-8"?>
<!-- Generator: Adobe Illustrator 19.1.0, SVG Export Plug-In . SVG Version: 6.00 Build 0)  -->
<!DOCTYPE svg PUBLIC "-//W3C//DTD SVG 1.1//EN" "http://www.w3.org/Graphics/SVG/1.1/DTD/svg11.dtd">
<svg version="1.1" id="Layer_1" xmlns="http://www.w3.org/2000/svg" xmlns:xlink="http://www.w3.org/1999/xlink" x="0px" y="0px"
	 viewBox="-630 945.2 120 60" style="enable-background:new -630 945.2 120 60;" xml:space="preserve">
<style type="text/css">
	.st0{fill:#BBBBBB;}
</style>
<g>
	<g>
		<path class="st0" d="M-613.3,989.1h-0.5l-1.2-2.7l0,0l-0.2,3.2h-0.6l0.4-3.9h0.7l1.2,2.8l1.2-2.8h0.7l0.4,3.9h-0.6l-0.2-3.3l0,0
			L-613.3,989.1z"/>
		<path class="st0" d="M-607.1,989.6l-0.5-1.2h-1.5l-0.5,1.2h-0.6l1.4-3.9h0.7l1.4,3.9H-607.1z M-608.9,987.9h1.2l-0.6-1.8l0,0
			L-608.9,987.9z"/>
		<path class="st0" d="M-605.4,987.1c0-0.5,0-1.2,1.1-1.4c0.2,0,0.5-0.1,0.7-0.1c0.5,0,0.8,0.1,1.1,0.1v0.5c-0.2,0-0.6-0.1-1.1-0.1
			c-0.2,0-0.4,0-0.6,0c-0.6,0.1-0.6,0.7-0.6,0.9v0.5v0.5c0,0.4,0,0.8,0.6,0.9c0.1,0,0.4,0,0.6,0c0.5,0,0.8-0.1,1.1-0.1v0.5
			c-0.2,0-0.6,0.1-1.1,0.1c-0.2,0-0.5,0-0.7-0.1c-1.1-0.2-1.1-0.9-1.1-1.4v-0.5V987.1z"/>
		<path class="st0" d="M-597.7,986c-0.5,0-0.8,0-0.8,0.6c0,0.2,0.2,0.6,0.6,0.6h2v0.5h-0.6v1.9c-0.5,0-0.9,0-1.1,0
			c-0.8,0-1.5-0.1-1.5-1.2c0-0.4,0.1-0.8,0.6-0.9c-0.4-0.1-0.5-0.5-0.5-0.8c0-0.9,0.5-1.1,1.3-1.1h0.6v0.5H-597.7z M-597,987.7h-0.9
			c-0.5,0-0.7,0.4-0.7,0.7c0,0.6,0.5,0.7,0.9,0.7c0.1,0,0.4,0,0.6,0v-1.4H-597z"/>
		<path class="st0" d="M-591.8,988.2v1.5h-0.6v-3.9h1.5c0.7,0,1.3,0.1,1.3,1.2s-0.5,1.2-1.3,1.2H-591.8z M-590.9,987.7
			c0.5,0,0.7-0.1,0.7-0.7c0-0.7-0.2-0.7-0.7-0.7h-0.9v1.5h0.9V987.7z"/>
		<path class="st0" d="M-588.2,987.1c0-0.5,0-1.2,1.1-1.4c0.2,0,0.5-0.1,0.7-0.1c0.5,0,0.8,0.1,1.1,0.1v0.5c-0.2,0-0.6-0.1-1.1-0.1
			c-0.2,0-0.4,0-0.6,0c-0.6,0.1-0.6,0.7-0.6,0.9v0.5v0.5c0,0.4,0,0.8,0.6,0.9c0.1,0,0.4,0,0.6,0c0.5,0,0.8-0.1,1.1-0.1v0.5
			c-0.2,0-0.6,0.1-1.1,0.1c-0.2,0-0.5,0-0.7-0.1c-1.1-0.2-1.1-0.9-1.1-1.4v-0.5V987.1z"/>
		<path class="st0" d="M-581.8,989.6v-3.9h2.4v0.5h-1.9v1.3h1.7v0.5h-1.7v1.3h1.9v0.5h-2.4V989.6z"/>
		<path class="st0" d="M-575.1,989.6h-0.7l-0.9-1.5h-0.6v1.5h-0.6v-3.9h1.5c0.7,0,1.3,0.1,1.3,1.2c0,0.9-0.5,1.2-1.1,1.2
			L-575.1,989.6z M-576.2,987.7c0.5,0,0.7-0.1,0.7-0.7c0-0.7-0.2-0.7-0.7-0.7h-0.9v1.5h0.9V987.7z"/>
		<path class="st0" d="M-571.2,987.8h-1.8v1.8h-0.6v-3.9h0.6v1.7h1.8v-1.7h0.6v3.9h-0.6V987.8z"/>
		<path class="st0" d="M-566.5,985.7h0.6l-1.4,3.9h-0.6l-1.4-3.9h0.6l1.1,3.2l0,0L-566.5,985.7z"/>
		<path class="st0" d="M-564.5,989.6v-3.9h2.4v0.5h-1.9v1.3h1.7v0.5h-1.7v1.3h1.9v0.5h-2.4V989.6z"/>
		<path class="st0" d="M-557.7,989.6h-0.7l-0.9-1.5h-0.6v1.5h-0.6v-3.9h1.5c0.7,0,1.3,0.1,1.3,1.2c0,0.9-0.5,1.2-1.1,1.2
			L-557.7,989.6z M-558.9,987.7c0.5,0,0.7-0.1,0.7-0.7c0-0.7-0.2-0.7-0.7-0.7h-0.9v1.5h0.9V987.7z"/>
		<path class="st0" d="M-553.8,985.7h0.6l-1.4,3.9h-0.6l-1.4-3.9h0.6l1.1,3.2l0,0L-553.8,985.7z"/>
		<path class="st0" d="M-550.7,986c-0.6,0-0.9,0.1-0.9,0.6c0,0.2,0.2,0.4,0.6,0.6l0.7,0.4c0.5,0.2,0.7,0.5,0.7,1.1
			c0,0.8-0.6,0.9-1.4,0.9c-0.2,0-0.7,0-1.2-0.1V989c0.4,0.1,0.9,0.1,1.2,0.1c0.6,0,0.9-0.1,0.9-0.5c0-0.4-0.1-0.5-0.5-0.6l-0.8-0.4
			c-0.6-0.2-0.8-0.5-0.8-1.1c0-0.8,0.5-1.1,1.4-1.1c0.2,0,0.6,0,0.9,0.1v0.5C-550,986.2-550.4,986-550.7,986z"/>
		<path class="st0" d="M-548.1,987.1c0-0.5,0-1.2,1.1-1.4c0.2,0,0.5-0.1,0.7-0.1c0.5,0,0.8,0.1,1.1,0.1v0.5c-0.2,0-0.6-0.1-1.1-0.1
			c-0.2,0-0.4,0-0.6,0c-0.6,0.1-0.6,0.7-0.6,0.9v0.5v0.5c0,0.4,0,0.8,0.6,0.9c0.1,0,0.4,0,0.6,0c0.5,0,0.8-0.1,1.1-0.1v0.5
			c-0.2,0-0.6,0.1-1.1,0.1c-0.2,0-0.5,0-0.7-0.1c-1.1-0.2-1.1-0.9-1.1-1.4v-0.5V987.1z"/>
		<path class="st0" d="M-543.8,989.6v-3.9h2.4v0.5h-1.9v1.3h1.7v0.5h-1.7v1.3h1.9v0.5h-2.4V989.6z"/>
		<path class="st0" d="M-537.5,988.8L-537.5,988.8v-3.1h0.6v3.9h-0.6l-1.7-3.1l0,0v3.1h-0.6v-3.9h0.7L-537.5,988.8z"/>
		<path class="st0" d="M-534.4,986.2h-1.2v-0.5h2.9v0.5h-1.2v3.4h-0.6V986.2z"/>
		<path class="st0" d="M-531.2,989.6v-3.9h2.4v0.5h-1.9v1.3h1.7v0.5h-1.7v1.3h1.9v0.5h-2.4V989.6z"/>
		<path class="st0" d="M-524.6,989.6h-0.7l-0.9-1.5h-0.6v1.5h-0.6v-3.9h1.5c0.7,0,1.3,0.1,1.3,1.2c0,0.9-0.5,1.2-1.1,1.2
			L-524.6,989.6z M-525.8,987.7c0.5,0,0.7-0.1,0.7-0.7c0-0.7-0.2-0.7-0.7-0.7h-0.9v1.5h0.9V987.7z"/>
	</g>
	<path class="st0" d="M-620,968.6c0-2.2,0.2-6.1,5.3-7.4c1.1-0.2,2.2-0.4,3.3-0.4c2.2,0,4,0.2,5.8,0.5v3.4c-1.5-0.2-3.9-0.5-5.8-0.5
		c-2.8,0-4.4,1.2-4.5,4.5c0,1.5,0,3.1,0,4.5c0,3.2,1.4,4.2,4.5,4.2c1.8,0,4.2-0.1,5.8-0.4v3.4c-1.7,0.4-3.5,0.5-5.8,0.5
		c-1.1,0-2.2-0.1-3.3-0.4c-5.2-1.3-5.3-5.1-5.3-7.4V968.6z"/>
	<path class="st0" d="M-584.3,975.2l-1.9,5.5h-4.2l7.1-19.7h4.6l7.1,19.7h-4.2l-1.9-5.5H-584.3z M-579.1,971.8l-2-6.5l0,0l-2,6.5
		H-579.1z"/>
	<polygon class="st0" points="-598.2,977.3 -598.2,961 -602.4,961 -602.4,980.7 -593.2,980.7 -591.9,977.3 	"/>
	<path class="st0" d="M-554.7,980.7h-5l-4.4-7.2h-1.4v7.2h-4.2V961h7.8c4.1,0,6.7,0.7,6.7,6.4c0,4.2-1.5,5.5-4.5,6h-0.2v0.1
		L-554.7,980.7z M-561.9,970.2c1.5,0,2.5-0.2,2.5-2.8s-0.9-2.8-2.5-2.8h-3.5v5.7L-561.9,970.2L-561.9,970.2z"/>
	<path class="st0" d="M-536.4,973.4c0,5.4-1.8,7.7-7.7,7.7h-0.2c-6,0-7.7-2.5-7.7-7.7v-12.3h4.2v12.3c0,2.8,0.7,4.1,3.4,4.1h0.2
		c2.6,0,3.4-1.2,3.4-4.1v-12.3h4.2V973.4z"/>
	<path class="st0" d="M-520.6,965c-1.1-0.5-4.5-0.7-5.4-0.7c-2,0-3.3,0.4-3.3,2c0,1.1,0.8,1.5,2.2,2.2l3.4,1.8
		c2.4,1.2,3.7,2.7,3.7,5.5c0,4.2-2.8,5.2-7.7,5.2c-0.9,0-3.8-0.4-6.2-0.9v-3.7c2.6,0.8,5.3,1.1,6.2,1.1c2.1,0,3.4-0.4,3.4-1.8
		c0-1.3-0.5-1.8-1.4-2.2l-3.7-1.8c-2.8-1.4-4.2-2.6-4.2-5.5c0-4.4,2.7-5.4,7.5-5.4c0.9,0,3.3,0.2,5.4,0.8L-520.6,965L-520.6,965z"/>
</g>
</svg>
