<?xml version="1.0" encoding="utf-8"?>
<!-- Generator: Adobe Illustrator 19.1.0, SVG Export Plug-In . SVG Version: 6.00 Build 0)  -->
<!DOCTYPE svg PUBLIC "-//W3C//DTD SVG 1.1//EN" "http://www.w3.org/Graphics/SVG/1.1/DTD/svg11.dtd">
<svg version="1.1" id="Layer_1" xmlns="http://www.w3.org/2000/svg" xmlns:xlink="http://www.w3.org/1999/xlink" x="0px" y="0px"
	 viewBox="28 -21.9 120 60" style="enable-background:new 28 -21.9 120 60;" xml:space="preserve">
<style type="text/css">
	.st0{fill:#BBBBBB;}
</style>
<g>
	<path class="st0" d="M83.2,8.8c-0.7,3.5-1.3,6.9-2,10.3h3.1l0.5-2.5c0.2-1.3,0.7-2.3,1.6-3.2c0.1-0.1,0.5-0.2,0.7-0.3l0.1,0.7
		c-0.1,1-0.3,2-0.6,3l-0.5,2.4h3.1V19c0.3-1.7,0.7-3.5,0.9-5.2c0.1-0.6,0.2-1.3,0.2-1.8c0-0.9-0.6-1.5-1.5-1.7c-1-0.1-2,0.1-2.8,0.8
		c-0.3,0.2-0.6,0.5-0.7,0.6c0.7-1.5,0.9-3.5,1.3-5.3h-2.1l-2.5,0.1l-0.3,2.1C82.1,8.7,82.6,8.7,83.2,8.8z M67.3,19.1l0.5-2.4
		l0.8-4.2c0.2-1.4-0.6-2.3-2-2.3c-1,0-1.8,0.5-2.5,1.2c-0.1,0.1-0.2,0.3-0.5,0.5c0.1-0.6,0.2-1,0.5-1.6c-1.5,0.1-2.9,0.1-4.3,0.2
		c-0.1,0-0.2,0.1-0.2,0.2l-0.3,1.8c0.5,0.1,0.9,0.1,1.5,0.2c-0.5,2.1-0.8,4.2-1.2,6.2h3.1v-0.2l0.7-3.2c0.2-0.9,0.8-1.8,1.5-2.5
		c0.1-0.1,0.3-0.1,0.5-0.1l0.1,0.5l-0.6,3.3c-0.1,0.8-0.2,1.5-0.5,2.3C65.3,19.1,66.3,19.1,67.3,19.1z M138-7.8
		c-1.3,1.3-2.9,1.7-4.5,2.1c-1,0.2-2.2,0.5-3.2,0.8c-1.6,0.5-3,1.4-3.9,2.9c-0.7,1-1.2,2.2-1.5,3.3l-0.3,1.5
		c0.6-0.6,1.2-1.2,1.8-1.6c1.2-0.9,2.4-1.4,3.7-2c1.5-0.6,3-1.2,4.4-2.2C136.2-4,137.4-5.6,138-7.8L138-7.8z M123.7,7.2
		c1-1,2.3-1.6,3.6-2l4.2-1c2-0.6,3.3-1.7,4.3-3.6c0.5-1,0.9-2,1.2-3.1l0.2-1H137l-0.2,0.2c-1,1.2-2.4,2.1-3.8,2.8
		c-0.8,0.3-1.6,0.7-2.5,1c-1.5,0.6-2.9,1.3-4,2.3C125,4.1,124.1,5.5,123.7,7.2z M74.5,19.2l1,0.1c1.2,0.1,2.2,0,3.2-0.6
		c1.6-0.9,2-2.9,0.8-4.4c-0.2-0.3-0.6-0.6-0.8-0.8c-0.1-0.1-0.2-0.5-0.1-0.6c0.1-0.1,0.3-0.2,0.6-0.2h1.2c0.2-0.7,0.3-1.5,0.6-2.3
		c-1.4-0.1-2.8-0.2-4,0.5c-1.3,0.7-1.7,2.1-1.3,3.3c0.1,0.5,0.5,0.8,0.8,1.2c0.2,0.2,0.5,0.5,0.6,0.7c0.2,0.3,0,0.6-0.3,0.7h-0.5
		c-0.5,0-0.8-0.1-1.3-0.2C74.7,17.5,74.6,18.3,74.5,19.2z M74.4,10.5C74.4,10.4,74.3,10.4,74.4,10.5c-1.5,0-3,0-4.4,0.1
		c-0.1,0-0.2,0.1-0.2,0.1c-0.1,0.6-0.2,1.3-0.3,2c0.5,0,0.8,0.1,1.2,0.1c0.2,0,0.3,0.1,0.3,0.3c-0.1,0.6-0.2,1.3-0.3,2
		c-0.2,1.4-0.5,2.7-0.8,4h3.1C73.3,16.2,73.8,13.3,74.4,10.5z M73.5,6.1c-1.2,0-2,0.8-2,2c0,0.9,0.8,1.7,1.7,1.7c1.2,0,2-0.9,2-2
		C75.2,6.8,74.5,6.1,73.5,6.1z M38,19c0.1-0.7,0.2-1.3,0.5-2c0.5-2.3,0.9-4.6,1.3-6.8V9.8l-1.4-0.2l0.3-2.1l2.7-0.1h3.9
		c0.6,0,1.2,0.2,1.6,0.5c1.4,0.6,2,1.7,2.1,3.2c0.1,2.1-0.3,4-1.7,5.8c-1.3,1.6-3.1,2.3-5.1,2.4c-1.3,0-2.5,0-3.8-0.1H38
		C38,19.2,38,19,38,19z M41.7,16.3c0.9,0.1,1.7,0,2.4-0.6c1.4-1.2,1.7-2.8,1.5-4.5c-0.1-0.7-0.5-1-1.2-1.2c-0.5-0.1-0.9-0.1-1.4,0
		c-0.1,0-0.2,0.1-0.2,0.2c-0.1,0.5-0.2,1-0.3,1.6C42.3,13.3,41.9,14.8,41.7,16.3z M108.8,23.8l-0.3-0.1c-0.8,0-1.5-0.1-2.2-0.5
		c-1.5-0.6-1.8-2.2-0.7-3.5c0.2-0.3,0.6-0.6,0.9-0.8c-0.2-0.1-0.5-0.2-0.7-0.2l1.2-2c-1.6-1.3-1.5-4,0.1-5.3c0.8-0.7,1.8-0.9,2.8-1
		c1.5-0.2,2.9,0,4.4,0.1c0.2,0,0.5,0,0.8,0.1c-0.1,0.7-0.2,1.3-0.3,1.8c0,0.1-0.2,0.1-0.3,0.2c-0.2,0-0.5,0.1-0.6,0.1l-0.2,2.1
		c-0.3,1.5-1.6,2.2-3,2.3h-0.9c-0.3,0-0.5,0.1-0.5,0.6l1.7,0.3c0.5,0.1,1,0.2,1.5,0.5c1.7,0.7,1.7,2.2,1,3.3
		c-0.6,0.9-1.4,1.4-2.4,1.6l-1.7,0.2c-0.1,0-0.2,0-0.3,0.1C108.9,23.8,108.8,23.8,108.8,23.8z M111,13.5c0-0.6-0.1-0.8-0.5-0.9
		c-0.3,0-0.7,0-0.9,0.2c-0.5,0.5-0.7,1-0.7,1.7c0,0.2,0.2,0.6,0.5,0.6c0.3,0,0.7,0,0.9-0.1C110.7,14.6,111,14,111,13.5z M109.1,21.6
		c0.3-0.1,0.7-0.1,0.9-0.2c0.2-0.1,0.5-0.2,0.5-0.6c0-0.3-0.2-0.5-0.5-0.6l-1.2-0.3c-0.6-0.1-0.8,0-1.2,0.5
		c-0.2,0.5-0.1,0.9,0.3,1.2C108.6,21.5,108.9,21.5,109.1,21.6z M98.4,9.7l-1.5-0.2c0.1-0.6,0.2-1,0.2-1.6c0-0.3,0.1-0.3,0.5-0.3
		c1.7,0,3.5-0.1,5.1-0.1c0.2,0,0.3,0,0.3,0.3c0.2,2.1,0.6,4.2,0.9,6.1l0.7,4.8c0,0.3,0,0.3-0.2,0.3h-2.7c-0.2,0-0.3-0.1-0.3-0.3
		l-0.1-1.3c0-0.2-0.1-0.3-0.3-0.3h-3c-0.1,0-0.3,0.1-0.3,0.2l-0.7,1.4c-0.1,0.2-0.2,0.3-0.5,0.3h-2.9L98.4,9.7L98.4,9.7z
		 M100.6,11.1c-0.6,1.3-1.2,2.4-1.6,3.6h1.8c0.1,0,0.2-0.1,0.2-0.2C100.8,13.4,100.7,12.3,100.6,11.1z M57.1,19.1h-3
		c0.1-0.5,0.2-0.9,0.5-1.5l-0.7,0.8c-0.8,0.7-1.7,1-2.8,0.9c-0.7-0.1-1.2-0.6-1.5-1.3c-0.3-0.9-0.2-1.8-0.1-2.8
		c0.2-1.5,0.8-2.9,2.1-3.8c0.9-0.8,2-1.2,3.2-1.2s2.4,0.1,3.7,0.2c0.2,0,0.3,0.1,0.2,0.3c-0.5,2.7-0.9,5.4-1.5,8.1
		C57.1,19,57.1,19.1,57.1,19.1z M55.1,12.8c-0.7-0.2-1.3-0.1-1.6,0.5c-0.6,0.7-0.8,1.6-0.9,2.5c0,0.2-0.1,0.6,0.2,0.7
		c0.3,0.1,0.6-0.1,0.7-0.3c0.6-0.7,1-1.4,1.3-2.2C54.7,14,55.1,12.8,55.1,12.8z M130.7,13.5c0,2.8-1.6,5-4.2,5.5
		c-1,0.2-2.1,0.2-3-0.1c-1-0.3-1.6-1-1.7-2.1c-0.2-1.6,0.1-3.2,1.2-4.6c1-1.3,2.4-2,4-2c0.6,0,1.2,0,1.7,0.2c1.5,0.3,2,1.4,2.1,2.7
		C130.7,13.3,130.7,13.4,130.7,13.5z M127.5,14v-0.2c0-0.6-0.2-0.8-0.8-0.8c-0.5,0-0.9,0.2-1.2,0.6c-0.5,0.7-0.7,1.5-0.6,2.3
		c0,0.5,0.3,0.7,0.7,0.7c0.6,0,1-0.2,1.3-0.7C127.4,15.3,127.5,14.7,127.5,14z M119.6,10.4c-0.2,0.7-0.3,1.2-0.5,1.7
		c0.1-0.1,0.1-0.2,0.2-0.2c0.3-0.3,0.6-0.8,1-1.2c0.5-0.3,0.9-0.6,1.5-0.5c0.1,0,0.2,0.1,0.2,0.2c-0.2,0.9-0.5,1.8-0.6,2.8
		c-1-0.2-1.6,0.3-2,1.2c-0.6,1-0.8,2.1-1,3.2l-0.2,1.2c0,0.2-0.1,0.2-0.3,0.2h-2.5c-0.2,0-0.2-0.1-0.2-0.3c0.3-1.8,0.7-3.8,1.2-5.7
		c0-0.2,0-0.3-0.2-0.3s-0.5,0-0.7-0.1c-0.1,0-0.2-0.2-0.2-0.2l0.2-1.5c0-0.1,0.2-0.3,0.3-0.3C117,10.5,118.3,10.4,119.6,10.4
		L119.6,10.4z"/>
</g>
</svg>
