<?xml version="1.0" encoding="utf-8"?>
<!-- Generator: Adobe Illustrator 19.1.0, SVG Export Plug-In . SVG Version: 6.00 Build 0)  -->
<!DOCTYPE svg PUBLIC "-//W3C//DTD SVG 1.1//EN" "http://www.w3.org/Graphics/SVG/1.1/DTD/svg11.dtd">
<svg version="1.1" id="Layer_1" xmlns="http://www.w3.org/2000/svg" xmlns:xlink="http://www.w3.org/1999/xlink" x="0px" y="0px"
	 viewBox="28 -18 120 60" style="enable-background:new 28 -18 120 60;" xml:space="preserve">
<style type="text/css">
	.st0{fill:#BBBBBB;}
</style>
<g>
	<path class="st0" d="M119.9,6.8V-8.6H55.2V6.8c2.5,0,4.6,2.1,4.6,4.6S57.8,16,55.2,16v15.4h64.6V16c-2.5,0-4.6-2.1-4.6-4.6
		C115.2,8.8,117.3,6.8,119.9,6.8z M117.8,17.7v11.6H57.3V17.7c2.7-0.9,4.6-3.4,4.6-6.3c0-3-1.9-5.5-4.6-6.3V-6.6h60.5V5
		c-2.7,0.9-4.6,3.4-4.6,6.3C113.2,14.3,115.1,16.8,117.8,17.7z M100,9.2c-0.3,1-0.6,2-0.9,3h1.8L100,9.2C100.1,9.2,100,9.2,100,9.2z
		 M74.2,7.5c-0.4,0-0.7,0.1-0.7,0.2c-0.1,0.1-0.1,0.4-0.1,0.8V14c0,1,0.2,1.4,1,1.4c1.6,0,2.7-1.5,2.7-4c0-1.3-0.3-2.4-0.9-3
		C75.7,7.7,75,7.5,74.2,7.5z M91.9,7.5c-0.4,0-0.7,0.1-0.7,0.2c-0.1,0.1-0.1,0.4-0.1,0.8V14c0,1,0.2,1.4,1,1.4c1.6,0,2.7-1.5,2.7-4
		c0-1.3-0.3-2.4-0.9-3C93.3,7.7,92.7,7.5,91.9,7.5z M117.2-6H57.9V4.6c2.8,1.1,4.6,3.7,4.6,6.8c0,3-1.8,5.7-4.6,6.8v10.6h59.3V18.1
		c-2.8-1.1-4.6-3.7-4.6-6.8c0-3,1.8-5.7,4.6-6.8C117.2,4.6,117.2-6,117.2-6z M77.3,14.8c-0.9,0.8-2.1,1.2-3.6,1.2h-3v-0.5
		c0.9-0.1,1-0.2,1-1.4V8.8c0-1.2-0.1-1.3-0.9-1.4V6.9h3.5c1.5,0,2.6,0.3,3.4,1.2c0.6,0.7,1,1.6,1,3C78.8,12.7,78.2,14,77.3,14.8z
		 M87.8,12.1c-0.6,0.1-0.7,0.2-0.7,1.1v1.1c0,0.5,0,0.9,0.1,1.3c-0.7,0.2-1.7,0.5-2.7,0.5c-2.7,0-4.5-1.8-4.5-4.6
		c0-3.2,2.2-4.8,4.6-4.8c1,0,1.9,0.3,2.3,0.4c0,0.5,0.1,1.2,0.2,2.3l-0.4,0.1c-0.3-1.5-1.2-2.2-2.3-2.2c-1.4,0-2.6,1.5-2.6,4
		c0,2.1,0.9,4.3,2.8,4.3c0.2,0,0.5,0,0.7-0.2c0.2-0.1,0.3-0.3,0.3-0.8v-1.3c0-1-0.1-1.1-1.3-1.2v-0.5h3.5
		C87.8,11.6,87.8,12.1,87.8,12.1z M95,14.8c-0.9,0.8-2.1,1.2-3.6,1.2h-3v-0.5c0.9-0.1,1-0.2,1-1.4V8.8c0-1.2-0.1-1.3-0.9-1.4V6.9
		h3.5c1.5,0,2.6,0.3,3.4,1.2c0.6,0.7,1,1.6,1,3C96.5,12.7,95.9,14,95,14.8z M104.4,15.9h-3.4v-0.5c0.7-0.1,0.8-0.3,0.6-0.9
		c-0.1-0.4-0.3-1-0.5-1.6h-2.3c-0.1,0.4-0.3,0.9-0.4,1.5c-0.2,0.7-0.1,0.9,0.7,1v0.5h-2.6l0-0.5c0.8-0.1,0.9-0.3,1.3-1.4l2.4-7.2
		l0.6-0.2c0.8,2.4,1.5,4.9,2.2,7.3c0.4,1.2,0.6,1.4,1.3,1.5V15.9z"/>
</g>
</svg>
