<?xml version="1.0" encoding="utf-8"?>
<!-- Generator: Adobe Illustrator 19.1.0, SVG Export Plug-In . SVG Version: 6.00 Build 0)  -->
<!DOCTYPE svg PUBLIC "-//W3C//DTD SVG 1.1//EN" "http://www.w3.org/Graphics/SVG/1.1/DTD/svg11.dtd">
<svg version="1.1" id="Layer_1" xmlns="http://www.w3.org/2000/svg" xmlns:xlink="http://www.w3.org/1999/xlink" x="0px" y="0px"
	 viewBox="41.6 -17.8 120 60" style="enable-background:new 41.6 -17.8 120 60;" xml:space="preserve">
<style type="text/css">
	.st0{fill:#BBBBBB;}
	.st1{opacity:0.7;fill:#BBBBBB;enable-background:new    ;}
</style>
<g>
	<g>
		<path class="st0" d="M68.4,17.6l9.2-21.7h4.5l9.1,21.6h-5.8l-1.9-4.9h-7.4l-1.9,4.9L68.4,17.6L68.4,17.6z M79.8,1.3l-2.8,8h5.6
			L79.8,1.3z"/>
		<path class="st0" d="M107.9,8.6c-1-2-3.2-2.9-5.2-3.5c-1.1-0.4-2.2-0.6-3.3-0.9c-1-0.3-2-0.4-2.8-1.1c-0.7-0.5-0.9-1.6-0.3-2.2
			c0.7-0.7,1.9-0.8,2.8-0.7c1.1,0,2.2,0.4,3.3,0.7c0.9,0.4,2,0.7,2.8,1.3l2.4-4.1c-3-1.7-6.7-2.7-10.2-2.3c-3.4,0.4-6.6,2.5-7.1,6.1
			c-0.2,1.8,0.2,3.4,1.5,4.7c1.3,1.1,3.1,1.7,4.7,2.2c1.6,0.4,3.4,0.7,4.9,1.5c1.1,0.6,1.6,2,0.3,2.7c-1.5,0.8-3.6,0.3-5.1,0
			c-1.5-0.4-3.1-0.7-4.5-1.2l2.3,5.5c3.4,0.9,7.5,1.1,10.8-0.4C108,15.2,109.4,11.6,107.9,8.6C107.5,7.9,108.2,9.3,107.9,8.6z"/>
		<path class="st0" d="M131.5,17.6V-4.1h10.8c3.3,0,6.4,2.1,7.4,5.3c1.1,3.3-0.5,6.8-3.5,8.4l5.5,8h-6.2l-4.8-7h-3.6v7H131.5z
			 M137,6.2h5c3.3,0,3.1-5.9-0.2-5.9H137V6.2z"/>
		<path class="st0" d="M111,17.6V-4.1h5.5v21.6L111,17.6L111,17.6z"/>
		<path class="st1" d="M124.6-4.1H120v5.5h2.7v2.7h5.5v-4.6C128.1-2.4,126.5-4.1,124.6-4.1z"/>
		<path class="st0" d="M68.1,0.3v-4.4H55.3c-2,0-3.6,1.7-3.6,3.6V14c0,2,1.6,3.6,3.6,3.6h9.8l1.9-4.4h-9.7V8.6h9.4V4.5h-9.4V0.3
			H68.1z"/>
	</g>
	<g>
		<path class="st0" d="M62.2,26.7c0-1.8,2.6-3,3.4-1.1L65.1,26c-0.5-1.3-2-0.4-2,0.7s1.5,2,2.1,0.8l0.6,0.4
			C64.9,29.8,62.2,28.4,62.2,26.7z"/>
		<path class="st0" d="M68.8,28.1c0.7,0,1-0.7,1-1.3v-2h0.8v2c0,2.6-3.5,2.6-3.5,0v-2h0.8v2C67.8,27.4,68.1,28.1,68.8,28.1z"/>
		<path class="st0" d="M74.6,25.7c-0.3-0.3-1.2-0.6-1.6-0.3c-0.6,0.5,0.4,0.8,0.8,0.9c0.9,0.3,1.9,1,1.1,1.9
			c-0.7,0.8-2.2,0.4-2.9-0.1l0.4-0.7c0.4,0.4,1.3,0.7,1.8,0.4c0.7-0.5-0.4-0.9-0.8-1c-0.9-0.3-1.6-1-0.9-1.9
			c0.6-0.8,1.9-0.5,2.6-0.1L74.6,25.7z"/>
		<path class="st0" d="M79.5,25.4h-1.3v3.4h-0.8v-3.4h-1.3v-0.7h3.4L79.5,25.4L79.5,25.4z"/>
		<path class="st0" d="M82.5,28.7c-2.5,0-2.5-4.1,0-4.1C84.9,24.6,84.9,28.7,82.5,28.7z M81.3,26.7c0,1.7,2.2,1.7,2.2,0
			C83.6,25,81.3,25,81.3,26.7z"/>
		<path class="st0" d="M89.1,28.7v-2.6l-1.1,2h-0.4l-1.1-2v2.6h-0.8v-4.1h0.9l1.2,2.3l1.2-2.3h0.8v4.1H89.1z"/>
		<path class="st0" d="M94.4,28v0.7h-2.8v-4.1h2.7v0.7h-1.9v1H94v0.6h-1.7V28H94.4z"/>
		<path class="st0" d="M95.9,28.7v-4.1h1.8c1.3,0,1.8,2,0.5,2.6l1,1.5h-0.9l-0.9-1.3h-0.7v1.3C96.7,28.7,95.9,28.7,95.9,28.7z
			 M96.7,26.7h1c0.7,0,0.7-1.3,0-1.3h-1V26.7z"/>
		<path class="st0" d="M102.8,28.7v-4.1h1.8c1.3,0,1.8,2,0.5,2.6l1,1.5h-0.9l-0.9-1.3h-0.8v1.3C103.5,28.7,102.8,28.7,102.8,28.7z
			 M103.5,26.7h1c0.7,0,0.7-1.3,0-1.3h-1V26.7z"/>
		<path class="st0" d="M110.3,28v0.7h-2.8v-4.1h2.7v0.7h-1.9v1h1.7v0.6h-1.7V28H110.3z"/>
		<path class="st0" d="M111.7,28.7v-4.1h0.8V28h2v0.7H111.7z"/>
		<path class="st0" d="M115.5,28.7l1.6-4.1h0.6l1.6,4.1h-0.8l-0.4-1h-1.4l-0.4,1H115.5z M117.4,25.5l-0.6,1.7h1.1L117.4,25.5z"/>
		<path class="st0" d="M123.2,25.4h-1.3v3.4h-0.8v-3.4h-1.3v-0.7h3.4L123.2,25.4L123.2,25.4z"/>
		<path class="st0" d="M124.6,28.7v-4.1h0.8v4.1H124.6z"/>
		<path class="st0" d="M128.7,28.7c-2.5,0-2.5-4.1,0-4.1C131.3,24.6,131.3,28.7,128.7,28.7z M127.6,26.7c0,1.7,2.2,1.7,2.2,0
			C129.8,25,127.6,25,127.6,26.7z"/>
		<path class="st0" d="M132.9,26.1v2.6h-0.8v-4.1h0.6l2.1,2.6v-2.6h0.8v4.1h-0.6L132.9,26.1z"/>
		<path class="st0" d="M139.7,25.7c-0.4-0.4-2.2-0.5-1.7,0.3c0.2,0.3,0.6,0.3,0.9,0.4c0.9,0.3,1.9,1,1.1,1.9
			c-0.7,0.8-2.2,0.4-2.9-0.1l0.4-0.7c0.4,0.4,1.3,0.7,1.8,0.4c0.7-0.5-0.4-0.9-0.8-1c-0.9-0.3-1.6-1-0.9-1.9
			c0.6-0.8,1.9-0.5,2.6-0.1L139.7,25.7z"/>
	</g>
</g>
</svg>
