<?xml version="1.0" encoding="utf-8"?>
<!-- Generator: Adobe Illustrator 19.1.0, SVG Export Plug-In . SVG Version: 6.00 Build 0)  -->
<!DOCTYPE svg PUBLIC "-//W3C//DTD SVG 1.1//EN" "http://www.w3.org/Graphics/SVG/1.1/DTD/svg11.dtd">
<svg version="1.1" id="Layer_1" xmlns="http://www.w3.org/2000/svg" xmlns:xlink="http://www.w3.org/1999/xlink" x="0px" y="0px"
	 viewBox="19.9 -56 120 60" style="enable-background:new 19.9 -56 120 60;" xml:space="preserve">
<style type="text/css">
	.st0{fill:#BBBBBB;}
</style>
<g>
	<path class="st0" d="M59.8-25.6c0,0.8-0.1,2.1-1.2,2.1s-1.5-1.2-1.9-2l-2.4,6c1.6,1.2,3.7,2.1,5.8,2.1c3.9,0,6.5-2.8,6.5-6.7v-13.1
		h-6.9C59.7-37.2,59.8-25.6,59.8-25.6z M80.3-37.2l-1.3,3.3L78.1-32H78l-2.1-5.1h-8l6.8,11v8.4h6.9v-8.4l6.7-11
		C88.3-37.2,80.3-37.2,80.3-37.2z M97.3-29.9l-1.6-0.4c-0.5-0.1-1.3-0.3-1.3-0.9c0-0.8,0.9-1.1,1.5-1.1c1.5,0,2.8,0.7,4.1,1.5l1.9-5
		c-1.9-1.2-4-1.7-6.1-1.7c-4.2,0-8.4,2.6-8.4,7.2c0,3.1,2.3,4.7,5.1,5.1l1.3,0.3c0.7,0.1,1.6,0.3,1.6,1.2c0,0.9-1.2,1.2-1.9,1.2
		c-1.6,0-3.2-0.8-4.4-1.9l-0.4-0.4l-2.1,5.5c2.1,1.2,5,1.9,7.5,1.9c4.2,0,8.4-2.3,8.4-6.9C102.6-27.6,100.4-29.2,97.3-29.9z
		 M117.5-27.7l6.1-9.4h-7.7l-3.4,6.3c-0.4,0.7-0.8,1.3-1.1,2.1h-0.1l0.1-8.4h-6.9v19.4h6.9l-0.1-8.1h0.1c0.1,0.8,0.8,1.5,1.2,2.3
		l3.4,5.9h8.2C124.2-17.8,117.5-27.7,117.5-27.7z M44.2-38.7c0.3-0.3,0.3-0.4,0.3-0.7c0-0.4-0.3-0.9-0.7-1.3
		c-0.4-0.4-0.9-0.5-1.3-0.5c-0.4,0-0.5,0.1-0.7,0.4c-0.3,0.3-0.3,0.4-0.3,0.7c0,0.4,0.3,0.9,0.7,1.2C42.9-38.3,43.8-38.1,44.2-38.7z
		 M56.3-37.2c-0.1-0.3-1.7-1.9-3.6-3.3c-1.9-1.4-4.7-2.6-4.7-2.6S45.8-46,41.2-46c-2.4,0-4.3,0.7-5.6,1.2v2.8
		c1.3-1.1,3.4-1.9,5.5-1.9c5.6,0.3,6,3.9,6.1,5.5c0.1,1.7-0.4,2.9-1.6,3.9c-1.2,1-4.2,0.9-5.3,1.2c-1.1,0.3-2.7,1.3-2.7,3.6
		s1.7,5,4.5,8.6c2.7,3.6,4.1,8.3,3.9,11.9c0,0.4,0,0.5-0.1,0.9c0,0-0.1,1.2-0.4,2.1H48c0,0,0.4-1.5,0.4-3.4c0.4-9.1-5.6-15-6.1-15.7
		c-0.5-0.7-1.9-2.6-1.9-4.2c0.1-2.3,2.9-1.5,5.5-2.3c2.5-0.9,4.1-3.6,4.1-3.6c2.4,0,4.8-0.4,5.9-0.8C56.7-36.1,56.4-37.1,56.3-37.2z
		 M52.3-37.1c-1.2,0-2.5-0.3-2.5-0.3s-0.5-1.2-0.3-2.4c0,0,3.1,1.7,3.6,2.1C53.2-37.5,53.4-37.1,52.3-37.1z"/>
</g>
</svg>
