<?xml version="1.0" encoding="utf-8"?>
<!-- Generator: Adobe Illustrator 19.1.0, SVG Export Plug-In . SVG Version: 6.00 Build 0)  -->
<!DOCTYPE svg PUBLIC "-//W3C//DTD SVG 1.1//EN" "http://www.w3.org/Graphics/SVG/1.1/DTD/svg11.dtd">
<svg version="1.1" id="Layer_1" xmlns="http://www.w3.org/2000/svg" xmlns:xlink="http://www.w3.org/1999/xlink" x="0px" y="0px"
	 viewBox="28 -18 120 60" style="enable-background:new 28 -18 120 60;" xml:space="preserve">
<style type="text/css">
	.st0{fill:#BBBBBB;}
</style>
<path class="st0" d="M127.6,1.5h-79c-5.8,0-10.5,4.7-10.5,10.5c0,5.8,4.7,10.5,10.5,10.5h63l0-0.9h-63c-5.3,0-9.6-4.3-9.6-9.6
	c0-5.3,4.3-9.6,9.6-9.6h79c5.3,0,9.6,4.3,9.6,9.6c0,5.3-4.3,9.6-9.6,9.6h-2.5l0,0.9h2.5c5.8,0,10.5-4.7,10.5-10.5
	C138.1,6.2,133.4,1.5,127.6,1.5z M59.1,13.8h5.1l-2.6-5.6L59.1,13.8z M75,9.7c0-1.2-0.6-1.4-2-1.4h-3.9v3.1h3.8
	C74.4,11.4,75,11.1,75,9.7z M73.4,12.3h-4.3v3.4h4.1c1.4,0,2.1-0.1,2.1-1.6C75.3,12.9,75.1,12.3,73.4,12.3z M96.3,12
	c0-4.3,3.5-7.8,7.8-7.8H48.6c-4.3,0-7.8,3.5-7.8,7.8c0,4.3,3.5,7.8,7.8,7.8h55.6C99.8,19.8,96.3,16.3,96.3,12z M65.4,16.6l-0.9-2
	h-5.8l-0.9,2h-3.1l-5.3-4.3h-1.1v4.3h-1.3V7.4h1.3v4h1.1l4.7-4h1.7l-5.3,4.5l5.8,4.7l4.2-9.2h1.8l4.3,9.3
	C66.8,16.6,65.4,16.6,65.4,16.6z M73.9,16.6h-6.1V7.4h5.8c2.2,0,2.7,0.8,2.7,2.4c0,1-0.2,1.6-1.4,1.9v0c1.5,0.2,1.8,1.1,1.8,2.3
	C76.6,15.7,75.9,16.6,73.9,16.6z M85.5,8.3h-6.1v3.1h5.8v0.9h-5.8v3.4h6.1v0.9h-7.4V7.4h7.4C85.5,7.4,85.5,8.3,85.5,8.3z M94.4,16.6
	h-7.2V7.4h1.3v8.3h5.9V16.6z M56.4,16.6L56.4,16.6L56.4,16.6L56.4,16.6z M127.6,4.2h-23.4c-4.3,0-7.8,3.5-7.8,7.8
	c0,4.3,3.5,7.8,7.8,7.8h23.4c4.3,0,7.8-3.5,7.8-7.8C135.4,7.7,131.9,4.2,127.6,4.2z M115.2,16.9h-1.6V8.4l-4.3,8.5h-1.5l-4.4-8.5
	v8.5H102V7.1h2.5l4.1,8.1l4.1-8.1h2.5C115.2,7.1,115.2,16.9,115.2,16.9z M118.8,16.9h-1.6V7.1h1.6V16.9z M129.4,16.9l-3.6-4.3
	l-3.6,4.3h-1.9l4.3-5l-4-4.7h1.9l3.3,4l3.3-4h1.9l-3.9,4.7l4.2,5C131.2,16.9,129.4,16.9,129.4,16.9z"/>
<path class="st0" d="M127.6,4.2h-23.4c-4.3,0-7.8,3.5-7.8,7.8c0,4.3,3.5,7.8,7.8,7.8h23.4c4.3,0,7.8-3.5,7.8-7.8
	C135.4,7.7,131.9,4.2,127.6,4.2z M115.2,16.9h-1.6V8.4l-4.3,8.5h-1.5l-4.4-8.5v8.5H102V7.1h2.5l4.1,8.1l4.1-8.1h2.5
	C115.2,7.1,115.2,16.9,115.2,16.9z M118.8,16.9h-1.6V7.1h1.6V16.9z M129.4,16.9l-3.6-4.3l-3.6,4.3h-1.9l4.3-5l-4-4.7h1.9l3.3,4
	l3.3-4h1.9l-3.9,4.7l4.2,5C131.2,16.9,129.4,16.9,129.4,16.9z"/>
<path class="st0" d="M115.5,21.9h0.4v0.5h-0.4V21.9z M116.9,20.8h2.2c0.9,0,1.2,0.3,1.2,1.4c0,1-0.2,1.4-1.2,1.4h-2.2V20.8z
	 M119.9,22c0-0.8-0.2-0.9-0.7-0.9h-1.9v2.1h1.9c0.4,0,0.8-0.1,0.8-0.9C119.9,22.3,119.9,22,119.9,22z M121,20.8h0.4V22h0.5l1.7-1.2
	h0.6l0,0l-2,1.3l2.1,1.4l0,0h-0.6l-1.9-1.3h-0.4v1.3H121L121,20.8L121,20.8z M107.1,20.8h4.7v2.5h-4.7V20.8z M109.9,21.6h4.2v0.9
	h-4.2V21.6z"/>
</svg>
