<?xml version="1.0" encoding="utf-8"?>
<!-- Generator: Adobe Illustrator 19.1.0, SVG Export Plug-In . SVG Version: 6.00 Build 0)  -->
<!DOCTYPE svg PUBLIC "-//W3C//DTD SVG 1.1//EN" "http://www.w3.org/Graphics/SVG/1.1/DTD/svg11.dtd">
<svg version="1.1" id="Layer_1" xmlns="http://www.w3.org/2000/svg" xmlns:xlink="http://www.w3.org/1999/xlink" x="0px" y="0px"
	 viewBox="28 -18 120 60" style="enable-background:new 28 -18 120 60;" xml:space="preserve">
<style type="text/css">
	.st0{fill:#BBBBBB;}
	.st1{fill:#CCCCCC;}
	.st2{fill:#F0F0F0;}
</style>
<path class="st0" d="M123.6,26.7l-5-6.5l-2.9-4.5l7.9,1.9V26.7z"/>
<g>
	<path class="st0" d="M99.3,3.6c-0.7,0-1,0.3-1,0.9V14c0,0.7,0.3,1,1,1s1-0.3,1-1V4.5C100.2,3.9,100,3.6,99.3,3.6z M89.4,3.6H89v4.7
		h0.4c1.1,0,1.3-0.4,1.5-1.5V5C90.7,3.7,90.4,3.6,89.4,3.6z M114.5-7.8H60.5c-1.9,0-3.4,1.5-3.4,3.4v24.4c0,1.9,1.5,3.4,3.4,3.4
		h54.1c1.9,0,3.4-1.5,3.4-3.4V-4.4C117.9-6.3,116.3-7.8,114.5-7.8z M71.5,7.1c0.7,0.8,0.8,1.5,0.8,2.8v7.8H69v-6.8
		c0-1-0.2-1.9-1.8-1.9c-0.4,0-0.7,0-0.8,0.1v8.7H63V-3h3.4v8.6L69.6-3h3.6c0,0-3.5,8.6-3.6,9.1C70,6.1,70.9,6.3,71.5,7.1z
		 M77.4,17.6h-2.9V1.1h2.9V17.6z M85.4,17.6h-2.1c-1.2,0-2-0.1-2.7-0.8c-0.7-0.8-0.8-1.3-0.8-2.6V1.1h2.9v12.5c0,0.7,0,0.9,0.3,1.2
		c0.2,0.2,0.4,0.3,1.2,0.3h1.1C85.4,15.2,85.4,17.6,85.4,17.6z M91.5,9.5c0.1,0,0.9,0.1,1.5,0.6c0.7,0.6,0.7,1,0.7,2.1v5.4h-2.8
		v-5.5c0-0.6,0-0.8-0.3-1c-0.3-0.3-0.7-0.3-1-0.3H89v6.8h-2.8V1.1h3.7c1.9,0,2.7,0.2,3.4,1.3c0.4,0.7,0.4,1.6,0.4,2.8
		c0,2.5-0.1,3.6-2.1,4.1C91.3,9.4,91.3,9.5,91.5,9.5z M103,14c0,1.6,0,2.2-0.9,2.9c-0.7,0.6-1.3,0.7-2.9,0.7s-2.3-0.1-2.9-0.7
		c-0.7-0.7-0.8-1.3-0.8-2.9V4.7c0-1.5,0.2-2.2,0.9-2.9c0.7-0.6,1.6-0.7,2.8-0.7c1.3,0,2.2,0.1,2.9,0.7c0.7,0.7,0.9,1.3,0.9,2.9
		C103,4.7,103,14,103,14z M112.3,13.8c0,1.3-0.1,2.1-0.7,2.9c-0.7,0.8-1.7,0.9-2.7,0.9h-2.6v-2.5h2c0.6,0,0.8,0,1-0.3
		c0.2-0.2,0.2-0.7,0.2-1.2v-0.7h-1.3c-1.2,0-2.1-0.1-2.8-0.9c-0.6-0.8-0.7-1.3-0.7-2.3V1.1h2.8v8.3c0,0.8,0.2,1.1,1.1,1.1h0.8V1.3
		h2.8C112.3,1.3,112.3,13.8,112.3,13.8z"/>
</g>
<path class="st1" d="M123.6,26.7l-46.1,4v-9.1l46.1-4V26.7z"/>
<g>
	<path class="st2" d="M87.1,24.5l-0.8,0.1l-0.1-0.3h-0.8l-0.1,0.6l0.8-0.1l-0.1,1l-0.8,0.1L85,26.4l0.9-0.1l0.2-0.4l0.8-0.1
		l-0.2,1.3l-3.4,0.3l0.1-0.9l0.3-0.1l0.3-2.1h-0.3l0.1-0.9l3.4-0.3C87.3,23,87.1,24.5,87.1,24.5z M91,24.5l-0.3,0.1L90,25.3l0.3,0.6
		c0.1,0.1,0.1,0.1,0.2,0.1h0.2l-0.1,0.9c-0.2,0-0.3,0.1-0.7,0.1c-0.4,0-0.7-0.3-1-0.9l-0.2-0.3l-0.3,0.3h0.2l-0.1,0.9l-1.6,0.1
		l0.1-0.9l0.3-0.1l0.8-0.7l-0.4-0.7h-0.3l0.1-0.8l1.8-0.1l-0.1,0.9h-0.1l0.2,0.3l0.3-0.3h-0.2l0.1-0.8l1.6-0.1
		C91.1,23.8,91,24.5,91,24.5z M94,23.4c0.4,0,0.8,0.3,0.7,1.1l-0.1,1c-0.1,0.7-0.6,1-1,1h-0.1c-0.4,0-0.6-0.1-0.9-0.1l-0.1,0.4h0.3
		l-0.1,0.8l-1.9,0.1l0.1-0.9l0.3-0.1l0.3-2.5h-0.3l0.1-0.8l1.5-0.1l-0.1,0.3C93.2,23.6,93.5,23.4,94,23.4z M93.5,24.8
		c0.1-0.4,0.1-0.4-0.2-0.4h-0.1l-0.4,0.1l-0.2,1.1H93c0.2,0,0.3-0.1,0.3-0.7L93.5,24.8z M96.3,25.3c0,0.1,0.1,0.2,0.2,0.2h0.1
		l-0.1,0.8c-0.3,0.2-0.6,0.2-0.8,0.2c-0.4,0-0.8-0.1-0.7-0.8l0.3-2.3h-0.3l0.1-0.8l1.5-0.1C96.7,22.5,96.3,25.3,96.3,25.3z
		 M98.6,26.2c-1.2,0.1-1.6-0.2-1.3-1.5v-0.1c0.2-1.2,0.6-1.6,1.8-1.7h0.2c1.2-0.1,1.5,0.3,1.3,1.6v0.1c-0.2,1.2-0.6,1.6-1.7,1.7
		C98.9,26.3,98.6,26.2,98.6,26.2z M98.8,25.3c0.2,0,0.4-0.1,0.4-0.4l0.1-0.9c0-0.2,0-0.3-0.3-0.3h-0.2c-0.2,0-0.4,0.1-0.4,0.4
		l-0.1,0.9c0,0.2,0,0.3,0.3,0.3H98.8z M102.5,23.1c0.2-0.2,0.4-0.6,0.8-0.7h0.3l-0.1,1.1l-0.8,0.1c-0.1,0-0.2,0.1-0.4,0.1l-0.3,1.9
		l-1.2,0.1l0.3-2.2h-0.3l0.1-0.8l1.5-0.1C102.2,22.7,102.5,23.1,102.5,23.1z M105.6,22.3c1-0.1,1.3,0.3,1.2,1.2l-0.1,0.7l-1.9,0.1
		v0.2c0,0.2,0.1,0.2,0.2,0.2h0.2c0.2,0,0.3-0.1,0.3-0.2v-0.1l1-0.1l-0.1,0.8c-0.4,0.3-0.9,0.4-1.3,0.4h-0.2
		c-1.1,0.1-1.5-0.3-1.3-1.3l0.1-0.6c0.1-0.9,0.7-1.3,1.7-1.5C105.4,22.1,105.6,22.3,105.6,22.3z M105.7,23.4c0-0.2-0.1-0.2-0.2-0.2
		h-0.1c-0.2,0-0.3,0.1-0.4,0.3v0.2l0.8-0.1V23.4z M109.5,24.2c0,0.2,0.1,0.2,0.2,0.2h0.1l-0.1,0.8c-0.3,0.2-0.6,0.2-0.8,0.2
		c-0.4,0-0.8-0.1-0.7-0.8l0.3-2.3h-0.3l0.1-0.8l1.5-0.1C109.8,21.4,109.5,24.2,109.5,24.2z M111.6,23.9c0,0.2,0.1,0.2,0.2,0.2h0.1
		l-0.1,0.8c-0.3,0.2-0.6,0.2-0.8,0.2c-0.3,0-0.8-0.1-0.7-0.8l0.2-1.5h-0.3l0.1-0.8l1.5-0.1C111.9,22,111.6,23.9,111.6,23.9z
		 M112.1,21c0,0.3-0.3,0.6-0.7,0.6s-0.7-0.2-0.6-0.6c0-0.3,0.3-0.6,0.7-0.6C111.9,20.5,112.2,20.7,112.1,21"/>
	<path class="st2" d="M112.5,21.9l0.3-0.1l0.1-0.3c0.1-0.4,0.4-0.9,1-1c0.4-0.1,0.8-0.1,1-0.2V21c-0.1,0-0.3,0.1-0.6,0.2
		c-0.1,0-0.2,0.1-0.2,0.2v0.1l0.9-0.1l-0.1,0.9l-0.9,0.1l-0.3,2.2c-0.1,0.7-0.3,1-0.8,1.1c-0.3,0-0.6,0-0.9-0.1l0.1-0.8h0.1
		c0.1,0,0.2,0,0.2-0.2l0.3-2.1h-0.3V21.9z M116.9,21.4c1-0.1,1.3,0.3,1.2,1.2l-0.1,0.6l-1.9,0.1v0.2c0,0.2,0.1,0.2,0.2,0.2h0.2
		c0.2,0,0.3-0.1,0.3-0.2v-0.1l1-0.1l-0.1,0.8c-0.4,0.3-0.9,0.4-1.3,0.4h-0.2c-1.1,0.1-1.5-0.3-1.3-1.3l0.1-0.6
		c0.1-0.9,0.7-1.3,1.7-1.5C116.7,21.1,116.9,21.4,116.9,21.4z M117.1,22.4c0-0.2-0.1-0.2-0.2-0.2h-0.1c-0.2,0-0.3,0.1-0.4,0.3v0.2
		l0.8-0.1V22.4z"/>
</g>
<path class="st0" d="M77.4,30.7l5.7,1.5v-1.9L77.4,30.7z"/>
</svg>
