<?xml version="1.0" encoding="utf-8"?>
<!-- Generator: Adobe Illustrator 19.1.0, SVG Export Plug-In . SVG Version: 6.00 Build 0)  -->
<!DOCTYPE svg PUBLIC "-//W3C//DTD SVG 1.1//EN" "http://www.w3.org/Graphics/SVG/1.1/DTD/svg11.dtd">
<svg version="1.1" id="Layer_1" xmlns="http://www.w3.org/2000/svg" xmlns:xlink="http://www.w3.org/1999/xlink" x="0px" y="0px"
	 viewBox="1208 -18 120 60" style="enable-background:new 1208 -18 120 60;" xml:space="preserve">
<style type="text/css">
	.st0{fill:#BBBBBB;}
</style>
<g>
	<path class="st0" d="M1316.8-3.9H1298c0,0-1.2,0-1.2,1.2V16c0,0,0,1.2,1.2,1.2h18.8c0,0,1.2,0,1.2-1.2V-2.8
		C1318-2.8,1318-3.9,1316.8-3.9L1316.8-3.9z M1307.5-2.7l4.2,4.3c-0.1,0-2.5,0-2.5,0l0,0l0,9.2h-2.4c-0.3,0-0.6,0-0.8,0l0-9.2
		l-2.5,0h0L1307.5-2.7L1307.5-2.7z M1315.8,11.5c-0.4,1-1.3,1.8-2.2,2.4c-2.1,1.4-4.7,2-7.3,1.7c-0.2,0-0.5-0.1-0.7-0.1h0v0
		c-0.7-0.1-1.4-0.3-2.1-0.5c-1.6-0.6-3.2-1.6-4.2-3.1c-0.4-0.6-0.6-1.3-0.7-2c-0.1-1.3,0.5-2.5,1.3-3.4c0.2-0.3,0.5-0.5,0.8-0.7v0
		c-0.4-0.3-0.9-0.6-1.3-0.9l0.1,0l4.6,0l0,0l0,0l0,3.2l0,0l-1.1-0.7c-0.5,0.4-0.7,0.9-1,1.4c-0.3,0.8-0.2,1.7,0.3,2.4
		c0.5,0.9,1.3,1.3,2.2,1.8c0.9,0.4,1.9,0.6,2.9,0.6c1.6,0,3.3-0.6,4.4-1.7c0.5-0.5,1.1-1.3,1-2.1c0-1.4-1.1-2.5-2.2-3.2v0l2.3-1.5
		c0,0,0,0,0.1,0c0.6,0.4,1.2,0.7,1.7,1.3c0.6,0.6,1.1,1.3,1.3,2.1C1316.2,9.4,1316.2,10.5,1315.8,11.5L1315.8,11.5z"/>
	<path class="st0" d="M1272.3-3.9l6,0c0,2.8,0,5.6,0,8.3l4.1-8.3h6.7l-5.3,9.6l4.9,11.5h-6.3l-4.1-10V7.2v10.1H1267l-0.8-3.3h-4.4
		l-0.8,3.3h-10.8l-5.2-10h-0.1v10h-5.6V-3.9h5.5l5.2,9.8l0.1,0.1c0.1-3.5,0-9.9,0-9.9h5.8l0,17.4l0,0.1l4.9-17.4l6.7,0l4.7,17.6
		c0,0,0,0.1,0,0.1V-3.9L1272.3-3.9z M1265.1,9.1l-1-4.8l-1.1,4.8H1265.1 M1223.8,12.5h6.7v4.7h-12.4V-3.9h5.7V12.5 M1237.4,17.2
		h-5.8V-3.9h5.8V17.2 M1224.4,23.2c-0.2,0-0.3,0.1-0.4,0.1c-0.1,0.1-0.1,0.2-0.2,0.3c-0.5,1.4-1,2.8-1.4,4.2h-0.1
		c-0.3-1-0.7-2-1.1-3l-1.1,3h-0.1c-0.5-1.5-0.9-2.8-1.3-3.8c-0.1-0.3-0.2-0.5-0.3-0.6c-0.1-0.1-0.2-0.2-0.4-0.2v-0.1h1.7v0.1
		c-0.3,0-0.5,0.1-0.4,0.2c0,0.1,0,0.2,0.1,0.3l1,2.7l0.7-2l-0.2-0.6c-0.1-0.3-0.2-0.5-0.3-0.5c-0.1-0.1-0.2-0.1-0.4-0.1v-0.1h1.8
		v0.1c-0.1,0-0.2,0-0.3,0c-0.1,0-0.2,0.1-0.2,0.2c0,0.1,0,0.1,0.1,0.2c0,0.1,0.1,0.2,0.1,0.3l0.9,2.4l0.9-2.4
		c0.1-0.2,0.1-0.3,0.1-0.5c0-0.1-0.1-0.2-0.1-0.3c-0.1,0-0.2-0.1-0.3-0.1v-0.1h1.4V23.2 M1229.5,27.8h-3.8v-0.1c0.2,0,0.4,0,0.5-0.1
		c0.1-0.1,0.1-0.2,0.1-0.5v-3.2c0-0.3,0-0.5-0.1-0.5c-0.1-0.1-0.3-0.1-0.5-0.1v-0.1h3.7l0,1h-0.2c0-0.3-0.1-0.5-0.3-0.6
		c-0.1-0.1-0.4-0.1-0.8-0.1h-0.9c-0.1,0-0.1,0-0.2,0c0,0-0.1,0.1-0.1,0.2v1.6h1.1c0.3,0,0.5,0,0.6-0.1c0.1-0.1,0.1-0.1,0.1-0.2
		c0-0.1,0-0.2,0.1-0.3h0.2v1.7h-0.2c0-0.3-0.1-0.5-0.2-0.6c-0.1-0.1-0.3-0.1-0.6-0.1l-1.1,0v1.8c0,0.1,0,0.1,0,0.2
		c0,0,0.1,0.1,0.1,0.1c0.1,0,0.4,0.1,0.9,0c0.4,0,0.8-0.1,1-0.2c0.2-0.1,0.4-0.4,0.5-0.7h0.2L1229.5,27.8 M1233.8,27.7
		c0.3,0,0.5,0,0.6-0.1c0.1-0.1,0.1-0.3,0.1-0.5v-3.2c0-0.3,0-0.4-0.1-0.5c-0.1-0.1-0.3-0.1-0.6-0.1v-0.1h2.1v0.1
		c-0.2,0-0.4,0-0.5,0.1c-0.1,0.1-0.2,0.3-0.2,0.5v3.2c0,0.3,0,0.4,0.1,0.5c0.1,0,0.1,0.1,0.2,0.1c0.1,0,0.2,0,0.3,0v0.1h-2.1V27.7
		 M1243,23.2c-0.2,0-0.4,0-0.5,0.1c0,0-0.1,0.1-0.1,0.2c0,0.1,0,0.2,0,0.3v3.2c0,0.3,0,0.4,0.1,0.5c0.1,0.1,0.3,0.1,0.5,0.1v0.1
		h-1.9v-0.1c0.3,0,0.4-0.1,0.5-0.2c0.1-0.1,0.1-0.3,0.1-0.6v-3.2h0l-1.8,4.1h-0.1l-1.7-3.9h0v2.9c0,0.4,0,0.6,0.1,0.7
		c0.1,0.1,0.3,0.2,0.5,0.2v0.1h-1.6v-0.1c0.3,0,0.4-0.1,0.5-0.2c0.1-0.1,0.1-0.4,0.1-0.7v-2.9c0-0.3,0-0.4-0.1-0.5
		c-0.1-0.1-0.3-0.1-0.5-0.1v-0.1h1.4l1.6,3.6l1.5-3.6h1.4V23.2 M1244.4,23.1h1.8c0.5,0,0.9,0.1,1.3,0.3c0.4,0.2,0.5,0.5,0.5,1
		c0,0.1,0,0.3,0,0.4c0,0.1-0.1,0.2-0.1,0.3c-0.1,0.2-0.2,0.3-0.3,0.3c-0.3,0.3-0.8,0.4-1.5,0.4c-0.2,0-0.3,0-0.5,0v1.3
		c0,0.3,0,0.4,0.1,0.5c0.1,0.1,0.3,0.1,0.5,0.1v0.1h-1.9v-0.1c0.3,0,0.4-0.1,0.5-0.2c0-0.1,0.1-0.1,0.1-0.2c0-0.1,0-0.2,0-0.3v-3.1
		c0-0.3,0-0.4-0.1-0.5c-0.1-0.1-0.2-0.1-0.5-0.1L1244.4,23.1L1244.4,23.1L1244.4,23.1z M1245.7,25.5c0.1,0,0.3,0,0.4,0
		c0.1,0,0.2,0,0.3,0c0.1,0,0.3-0.1,0.4-0.1c0.1-0.1,0.3-0.2,0.3-0.3c0.1-0.1,0.1-0.4,0.1-0.6c0-0.3-0.1-0.5-0.2-0.6
		c-0.1-0.1-0.2-0.2-0.4-0.3c-0.1-0.1-0.3-0.1-0.4-0.1c-0.1,0-0.3,0-0.3,0c-0.1,0-0.2,0-0.2,0c0,0-0.1,0.1-0.1,0.2L1245.7,25.5
		 M1253.8,27.8h-1.1l-1.7-2.2l-0.4,0v1.4c0,0.2,0,0.4,0.1,0.5c0.1,0.1,0.2,0.1,0.5,0.2v0.1h-1.9v-0.1c0.3,0,0.4-0.1,0.5-0.2
		c0-0.1,0.1-0.1,0.1-0.2c0-0.1,0-0.2,0-0.3v-3.1c0-0.3,0-0.4-0.1-0.5c-0.1-0.1-0.2-0.1-0.5-0.1v-0.1h1.9c0.2,0,0.3,0,0.5,0
		c0.2,0,0.4,0.1,0.6,0.2c0.2,0.1,0.3,0.2,0.5,0.4c0.1,0.2,0.2,0.4,0.2,0.7c0,0.2-0.1,0.4-0.1,0.6c-0.1,0.1-0.2,0.3-0.4,0.4
		c-0.1,0-0.1,0.1-0.2,0.1s-0.1,0-0.2,0.1c-0.1,0-0.3,0.1-0.4,0.1l1.4,1.8c0.1,0.1,0.2,0.2,0.3,0.2c0.1,0.1,0.2,0.1,0.4,0.1
		L1253.8,27.8L1253.8,27.8L1253.8,27.8z M1250.6,25.4c0.1,0,0.3,0,0.5,0c0.2,0,0.4-0.1,0.5-0.1c0.2-0.1,0.3-0.2,0.4-0.3
		c0.1-0.1,0.2-0.3,0.2-0.6c0-0.2-0.1-0.4-0.1-0.6c-0.1-0.1-0.2-0.2-0.3-0.3c-0.1-0.1-0.3-0.1-0.4-0.1c-0.1,0-0.2,0-0.3,0
		c-0.2,0-0.3,0-0.3,0c-0.1,0-0.1,0.1-0.1,0.2L1250.6,25.4 M1257.1,27.9c-0.6,0-1.2-0.2-1.6-0.7c-0.4-0.4-0.7-1-0.7-1.8
		c0-0.8,0.3-1.4,0.7-1.9c0.4-0.4,1-0.6,1.6-0.6c0.6,0,1.1,0.2,1.6,0.6c0.5,0.4,0.7,1,0.7,1.9c0,0.8-0.2,1.4-0.7,1.8
		C1258.3,27.7,1257.8,27.9,1257.1,27.9z M1257.1,27.7c0.4,0,0.7-0.2,1-0.5c0.3-0.3,0.4-0.9,0.4-1.7c0-0.8-0.2-1.4-0.5-1.7
		c-0.3-0.3-0.6-0.5-1-0.5c-0.4,0-0.7,0.2-1,0.5c-0.3,0.3-0.5,0.9-0.5,1.7c0,0.8,0.2,1.3,0.5,1.7
		C1256.4,27.5,1256.7,27.7,1257.1,27.7 M1265.2,23.2c-0.2,0-0.3,0-0.4,0.1c-0.1,0.1-0.2,0.3-0.3,0.5l-1.5,4h-0.1l-1.7-3.9
		c-0.1-0.3-0.3-0.5-0.4-0.6c-0.1-0.1-0.2-0.1-0.4-0.1v-0.1h1.8v0.1c-0.2,0-0.3,0-0.4,0.1c-0.1,0-0.1,0.1-0.1,0.2
		c0,0.1,0,0.1,0.1,0.3c0,0.1,0.1,0.3,0.2,0.5l1.1,2.4l1-2.6c0,0,0-0.1,0.1-0.2c0-0.1,0-0.2,0.1-0.3c0-0.1-0.1-0.2-0.1-0.3
		c-0.1,0-0.2-0.1-0.4-0.1v-0.1h1.4L1265.2,23.2 M1270.3,27.8h-3.8v-0.1c0.2,0,0.4,0,0.5-0.1c0.1-0.1,0.1-0.2,0.1-0.5v-3.2
		c0-0.3,0-0.5-0.1-0.5c-0.1-0.1-0.3-0.1-0.5-0.1v-0.1h3.7l0,1h-0.2c0-0.3-0.1-0.5-0.3-0.6c-0.1-0.1-0.4-0.1-0.8-0.1h-0.9
		c-0.1,0-0.1,0-0.2,0c0,0-0.1,0.1-0.1,0.2v1.6h1.1c0.3,0,0.5,0,0.6-0.1c0.1-0.1,0.1-0.1,0.1-0.2c0-0.1,0-0.2,0.1-0.3h0.2v1.7h-0.2
		c0-0.3-0.1-0.5-0.2-0.6c-0.1-0.1-0.3-0.1-0.6-0.1l-1.1,0v1.8c0,0.1,0,0.1,0,0.2c0,0,0.1,0.1,0.1,0.1c0.1,0,0.4,0.1,0.9,0
		c0.4,0,0.8-0.1,1-0.2c0.2-0.1,0.4-0.4,0.5-0.7h0.2L1270.3,27.8 M1278.7,23.2c-0.1,0-0.1,0-0.2,0c-0.1,0-0.1,0.1-0.2,0.1
		c-0.1,0-0.1,0.1-0.2,0.2c-0.1,0.1-0.2,0.3-0.3,0.5l-1,1.6v1.4c0,0.3,0,0.4,0.1,0.5c0.1,0.1,0.3,0.1,0.6,0.1v0.1h-2.1v-0.1
		c0.3,0,0.5-0.1,0.6-0.2c0-0.1,0.1-0.1,0.1-0.2c0-0.1,0-0.2,0-0.3v-1.2l-0.9-1.4c-0.3-0.5-0.6-0.8-0.7-1c-0.1-0.1-0.1-0.1-0.2-0.1
		c-0.1,0-0.1,0-0.2,0v-0.1h1.9v0.1c-0.2,0-0.3,0-0.4,0c-0.1,0-0.1,0.1-0.1,0.2c0,0,0,0.1,0,0.1c0,0.1,0,0.1,0.1,0.2l1,1.6l1-1.6
		c0.1-0.1,0.1-0.2,0.1-0.3c0-0.1-0.1-0.2-0.1-0.2c-0.1,0-0.2,0-0.3,0v-0.1h1.5L1278.7,23.2 M1282.2,27.9c-0.6,0-1.2-0.2-1.6-0.7
		c-0.4-0.4-0.7-1-0.7-1.8c0-0.8,0.3-1.4,0.7-1.9c0.4-0.4,1-0.6,1.6-0.6s1.1,0.2,1.6,0.6c0.5,0.4,0.7,1,0.7,1.9
		c0,0.8-0.2,1.4-0.7,1.8C1283.4,27.7,1282.9,27.9,1282.2,27.9L1282.2,27.9z M1282.2,27.7c0.4,0,0.7-0.2,1-0.5
		c0.3-0.3,0.4-0.9,0.4-1.7c0-0.8-0.2-1.4-0.5-1.7c-0.3-0.3-0.6-0.5-1-0.5c-0.4,0-0.7,0.2-1,0.5c-0.3,0.3-0.5,0.9-0.5,1.7
		c0,0.8,0.2,1.3,0.5,1.7C1281.5,27.5,1281.8,27.7,1282.2,27.7 M1290.7,23.2c-0.3,0-0.4,0.1-0.5,0.2c-0.1,0.1-0.1,0.4-0.1,0.7V26
		c0,0.1,0,0.3,0,0.5c0,0.2-0.1,0.4-0.2,0.6c-0.1,0.2-0.3,0.4-0.5,0.5c-0.3,0.1-0.6,0.2-1.1,0.2c-0.4,0-0.8-0.1-1-0.2
		c-0.2-0.1-0.4-0.3-0.5-0.5c-0.1-0.2-0.2-0.4-0.2-0.6c0-0.2,0-0.3,0-0.5v-2.2c0-0.3,0-0.4-0.1-0.5c-0.1-0.1-0.3-0.1-0.5-0.1v-0.1h2
		v0.1c-0.3,0-0.4,0.1-0.5,0.1s-0.1,0.3-0.1,0.5v2.3c0,0.1,0,0.3,0,0.4c0,0.2,0.1,0.3,0.1,0.5c0.1,0.1,0.2,0.3,0.4,0.4
		c0.2,0.1,0.4,0.2,0.7,0.2c0.6,0,0.9-0.2,1.1-0.6c0.1-0.1,0.1-0.2,0.1-0.3c0-0.1,0-0.4,0-0.6v-1.9c0-0.4,0-0.6-0.1-0.7
		c0-0.1-0.1-0.1-0.2-0.1c-0.1,0-0.2,0-0.3,0v-0.1h1.6V23.2 M1296.5,27.8h-1.1l-1.7-2.2l-0.4,0v1.4c0,0.2,0,0.4,0.1,0.5
		c0.1,0.1,0.2,0.1,0.5,0.2v0.1h-1.9v-0.1c0.3,0,0.4-0.1,0.5-0.2c0-0.1,0.1-0.1,0.1-0.2c0-0.1,0-0.2,0-0.3v-3.1c0-0.3,0-0.4-0.1-0.5
		c-0.1-0.1-0.2-0.1-0.5-0.1v-0.1h1.9c0.2,0,0.3,0,0.5,0c0.2,0,0.4,0.1,0.6,0.2c0.2,0.1,0.3,0.2,0.5,0.4c0.1,0.2,0.2,0.4,0.2,0.7
		c0,0.2,0,0.4-0.1,0.6c-0.1,0.1-0.2,0.3-0.4,0.4c-0.1,0-0.1,0.1-0.2,0.1s-0.1,0-0.2,0.1c-0.1,0-0.3,0.1-0.4,0.1l1.4,1.8
		c0.1,0.1,0.2,0.2,0.3,0.2c0.1,0.1,0.2,0.1,0.4,0.1L1296.5,27.8L1296.5,27.8L1296.5,27.8z M1293.3,25.4c0.1,0,0.3,0,0.5,0
		c0.2,0,0.4-0.1,0.5-0.1c0.2-0.1,0.3-0.2,0.4-0.3c0.1-0.1,0.2-0.3,0.2-0.6c0-0.2,0-0.4-0.1-0.6c-0.1-0.1-0.2-0.2-0.3-0.3
		c-0.1-0.1-0.3-0.1-0.4-0.1c-0.1,0-0.2,0-0.3,0c-0.2,0-0.3,0-0.3,0c-0.1,0-0.1,0.1-0.1,0.2L1293.3,25.4 M1302.4,23.2
		c-0.2,0-0.4,0-0.5,0.1s-0.1,0.3-0.1,0.5v3.4c0,0.1,0,0.2,0.1,0.3c0.1,0,0.3,0,0.6,0c0.3,0,0.5,0,0.7,0c0.2,0,0.4,0,0.5-0.1
		c0.3-0.1,0.5-0.4,0.7-0.8h0.2l-0.3,1.2h-3.7v-0.1c0.2,0,0.4,0,0.5-0.1c0.1-0.1,0.1-0.2,0.1-0.5v-3.2c0-0.3,0-0.5-0.1-0.5
		c-0.1-0.1-0.3-0.1-0.5-0.1v-0.1h2V23.2 M1305.7,27.7c0.3,0,0.5,0,0.6-0.1c0.1-0.1,0.1-0.3,0.1-0.5v-3.2c0-0.3,0-0.4-0.1-0.5
		c-0.1-0.1-0.3-0.1-0.6-0.1v-0.1h2.1v0.1c-0.2,0-0.4,0-0.5,0.1c-0.1,0.1-0.2,0.3-0.2,0.5v3.2c0,0.3,0,0.4,0.1,0.5
		c0.1,0,0.1,0.1,0.2,0.1c0.1,0,0.2,0,0.3,0v0.1h-2.1V27.7 M1312.1,26.2c0-0.3-0.1-0.5-0.2-0.6c-0.1-0.1-0.3-0.1-0.5-0.1l-1,0v1.6
		c0,0.3,0,0.4,0.1,0.5c0.1,0.1,0.3,0.1,0.5,0.1v0.1h-1.9v-0.1c0.3,0,0.4-0.1,0.5-0.2c0.1-0.1,0.1-0.3,0.1-0.6v-3.1
		c0-0.3,0-0.5-0.1-0.5c-0.1-0.1-0.3-0.1-0.5-0.1v-0.1h3.7l0,1h-0.2c0-0.3-0.1-0.5-0.3-0.6c-0.1-0.1-0.4-0.1-0.8-0.1h-0.9
		c-0.1,0-0.1,0-0.2,0c0,0,0,0.1,0,0.2v1.6h1c0.3,0,0.5,0,0.6-0.1c0.1-0.1,0.2-0.3,0.2-0.5h0.2v1.7H1312.1 M1317.7,27.8h-3.8v-0.1
		c0.2,0,0.4,0,0.5-0.1c0.1-0.1,0.1-0.2,0.1-0.5v-3.2c0-0.3,0-0.5-0.1-0.5c-0.1-0.1-0.3-0.1-0.5-0.1v-0.1h3.7l0,1h-0.2
		c0-0.3-0.1-0.5-0.3-0.6c-0.1-0.1-0.4-0.1-0.8-0.1h-0.9c-0.1,0-0.1,0-0.2,0c0,0-0.1,0.1-0.1,0.2v1.6h1.1c0.3,0,0.5,0,0.6-0.1
		c0.1-0.1,0.1-0.1,0.1-0.2c0-0.1,0-0.2,0.1-0.3h0.2v1.7h-0.2c0-0.3-0.1-0.5-0.2-0.6c-0.1-0.1-0.3-0.1-0.6-0.1l-1.1,0v1.8
		c0,0.1,0,0.1,0,0.2c0,0,0.1,0.1,0.1,0.1c0.1,0,0.4,0.1,0.9,0c0.4,0,0.8-0.1,1-0.2c0.2-0.1,0.4-0.4,0.5-0.7h0.2L1317.7,27.8
		 M1218.1,19h99.8v0.2h-99.8V19z M1291.1-2.1c0-1.1,0.9-1.9,1.9-1.9c1,0,1.9,0.8,1.9,1.9c0,1.1-0.9,1.9-1.9,1.9
		C1292-0.2,1291.1-1,1291.1-2.1z M1293-0.4c0.9,0,1.6-0.7,1.6-1.7c0-1-0.7-1.7-1.6-1.7c-0.9,0-1.7,0.7-1.7,1.7
		C1291.4-1.1,1292.1-0.4,1293-0.4z M1292.6-0.9h-0.3v-2.2h0.8c0.5,0,0.8,0.2,0.8,0.6c0,0.4-0.3,0.6-0.6,0.6l0.6,1h-0.4l-0.6-1h-0.4
		V-0.9z M1293-2.2c0.3,0,0.5,0,0.5-0.4c0-0.3-0.3-0.3-0.5-0.3h-0.5v0.7L1293-2.2"/>
</g>
</svg>
