<?xml version="1.0" encoding="utf-8"?>
<!-- Generator: Adobe Illustrator 19.1.0, SVG Export Plug-In . SVG Version: 6.00 Build 0)  -->
<!DOCTYPE svg PUBLIC "-//W3C//DTD SVG 1.1//EN" "http://www.w3.org/Graphics/SVG/1.1/DTD/svg11.dtd">
<svg version="1.1" id="Layer_1" xmlns="http://www.w3.org/2000/svg" xmlns:xlink="http://www.w3.org/1999/xlink" x="0px" y="0px"
	 viewBox="28 -17.9 120 60" style="enable-background:new 28 -17.9 120 60;" xml:space="preserve">
<style type="text/css">
	.st0{fill:#BBBBBB;}
</style>
<path class="st0" d="M49.6,15.7V9.6c0-0.9-0.2-1.6-0.6-2c-0.3-0.5-0.9-0.7-1.6-0.7c-1,0-1.7,0.2-2.2,0.8s-0.7,1.4-0.7,2.5v5.4h-0.8
	V9.3c0-1.6-0.7-2.4-2.2-2.4c-1,0-1.7,0.3-2.2,0.9s-0.7,1.5-0.7,2.7v5.1H38V6.3h0.7l0.2,1.2H39c0.2-0.5,0.7-0.8,1.1-1.1
	c0.5-0.2,1-0.3,1.6-0.3c1.5,0,2.4,0.6,2.8,1.7c0.3-0.6,0.8-1,1.2-1.2c0.5-0.2,1.1-0.5,1.7-0.5c1,0,1.8,0.3,2.3,0.8
	c0.6,0.6,0.8,1.4,0.8,2.6v6.1h-1L49.6,15.7z M59.1,15.7l-0.2-1.5h-0.1c-0.5,0.6-0.9,1-1.5,1.2c-0.5,0.2-1.1,0.3-1.8,0.3
	c-0.9,0-1.6-0.2-2.2-0.7c-0.6-0.5-0.8-1.1-0.8-1.9c0-0.9,0.3-1.6,1.1-2.2c0.8-0.6,1.8-0.8,3.3-0.8l1.8-0.1V9.5c0-0.9-0.2-1.6-0.6-2
	c-0.3-0.5-0.9-0.7-1.7-0.7c-0.9,0-1.8,0.2-2.7,0.7l-0.3-0.8c1-0.5,2-0.7,3.1-0.7c1,0,1.8,0.2,2.3,0.8c0.6,0.6,0.8,1.4,0.8,2.5v6.2
	h-0.5V15.7z M55.7,15c1,0,1.8-0.3,2.4-0.9c0.6-0.6,0.9-1.4,0.9-2.4v-0.9L57.4,11c-1.4,0.1-2.3,0.2-2.8,0.7c-0.6,0.3-0.8,0.9-0.8,1.6
	c0,0.6,0.2,1,0.6,1.4C54.6,14.9,55,15,55.7,15z M66.1,6.2c0.7,0,1.2,0.1,1.7,0.3c0.5,0.2,0.9,0.7,1.4,1.2h0.1l-0.1-2.2V4.1h0.9v11.6
	h-0.6l-0.2-1.4h-0.1c-0.7,1-1.7,1.6-3.1,1.6c-1.2,0-2.3-0.5-2.9-1.2c-0.7-0.8-1-1.9-1-3.5s0.3-2.8,1-3.7C63.9,6.7,64.9,6.2,66.1,6.2
	z M66.1,7c-1,0-1.8,0.3-2.3,1.1c-0.6,0.7-0.8,1.8-0.8,3.1c0,2.6,1,4,3.1,4c1,0,1.8-0.3,2.3-0.9c0.5-0.6,0.8-1.6,0.8-3.1v-0.1
	c0-1.5-0.2-2.5-0.7-3.1C68,7.3,67.3,7,66.1,7z M77,15.8c-1.4,0-2.4-0.5-3.2-1.2c-0.8-0.8-1.1-2-1.1-3.5s0.3-2.7,1.1-3.5
	c0.8-0.8,1.7-1.4,2.9-1.4c1.1,0,1.9,0.3,2.6,1.1s0.9,1.8,0.9,3.2v0.7h-6.7c0,1.2,0.3,2.3,0.9,2.9c0.6,0.7,1.5,1,2.5,1
	c0.6,0,1,0,1.4-0.1c0.5-0.1,0.9-0.2,1.6-0.5v0.8c-0.6,0.2-1,0.3-1.5,0.5C78.5,15.8,77,15.8,77,15.8z M76.7,7c-0.9,0-1.6,0.3-2.2,0.9
	c-0.6,0.6-0.9,1.5-0.9,2.6h5.8c0-1.1-0.2-1.9-0.7-2.5C78.1,7.2,77.6,7,76.7,7z M115.2,6.2c0.7,0,1.2,0.1,1.7,0.3
	c0.5,0.2,0.9,0.7,1.4,1.2h0.1l-0.1-2.2V4.1h0.9v11.6h-0.6l-0.3-1.4h-0.1c-0.7,1-1.7,1.6-3.1,1.6c-1.2,0-2.3-0.5-2.9-1.2
	c-0.7-0.8-1-1.9-1-3.5s0.3-2.8,1-3.7C112.9,6.7,114,6.2,115.2,6.2z M115.2,7c-1,0-1.8,0.3-2.3,1.1c-0.6,0.7-0.8,1.8-0.8,3.1
	c0,2.6,1,4,3.1,4c1,0,1.8-0.3,2.3-0.9c0.5-0.6,0.8-1.6,0.8-3.1v-0.1c0-1.5-0.2-2.5-0.7-3.1C117,7.3,116.2,7,115.2,7z M127.9,15.7
	l-0.2-1.5h-0.1c-0.5,0.6-0.9,1-1.5,1.2c-0.5,0.2-1.1,0.3-1.8,0.3c-0.9,0-1.6-0.2-2.2-0.7c-0.6-0.5-0.8-1.1-0.8-1.9
	c0-0.9,0.3-1.6,1.1-2.2c0.8-0.6,1.8-0.8,3.3-0.8l1.8-0.1V9.5c0-0.9-0.2-1.6-0.6-2c-0.3-0.5-0.9-0.7-1.7-0.7c-0.9,0-1.8,0.2-2.7,0.7
	l-0.3-0.8c1-0.5,2-0.7,3.1-0.7c1,0,1.8,0.2,2.3,0.8c0.5,0.6,0.8,1.4,0.8,2.5v6.2h-0.5L127.9,15.7z M124.4,15c1,0,1.8-0.3,2.4-0.9
	c0.6-0.6,0.9-1.4,0.9-2.4v-0.9l-1.6,0.1c-1.4,0.1-2.3,0.2-2.8,0.7c-0.6,0.3-0.8,0.9-0.8,1.6c0,0.6,0.2,1,0.6,1.4
	C123.3,14.9,123.8,15,124.4,15z M130,6.4h0.9l1.9,5.2c0.6,1.6,1,2.7,1.1,3.3h0.1c0.2-0.8,0.7-1.8,1.1-3.3l1.9-5.2h0.9l-4.2,10.8
	c-0.3,0.9-0.7,1.5-0.9,1.8c-0.2,0.3-0.5,0.6-0.8,0.7s-0.7,0.2-1.1,0.2c-0.3,0-0.7-0.1-1.1-0.2v-0.8c0.3,0.1,0.7,0.1,1.1,0.1
	c0.3,0,0.6-0.1,0.8-0.2c0.2-0.1,0.5-0.3,0.6-0.7c0.2-0.3,0.5-0.8,0.7-1.4c0.2-0.7,0.5-1,0.5-1.2C133.5,15.5,130,6.4,130,6.4z
	 M101,5.6c-1-1-2.4-1.6-3.7-1.6c-1.4,0-2.7,0.6-3.7,1.6c-1-1-2.4-1.6-3.7-1.6c-1.4,0-2.7,0.6-3.7,1.6c-2,2-2,5.4,0,7.6l4.1,4.1
	l2.4-2.4l-4.3-4.1c-0.8-0.8-0.8-2,0-2.7c0.3-0.3,0.9-0.6,1.4-0.6c0.6,0,1,0.2,1.4,0.6l2.4,2.4l2.4-2.4c0.3-0.3,0.9-0.6,1.4-0.6
	c0.6,0,1,0.2,1.4,0.6C98.8,8.5,99,9,99,9.5c0,0.6-0.2,1-0.6,1.4l-4.1,4.1l2.4,2.4l4.1-4.1C103.1,11.1,103.1,7.7,101,5.6z M107.3,6.4
	l-1.9,5.2c-0.6,1.5-0.9,2.6-1.1,3.3h-0.1c-0.1-0.5-0.5-1.4-0.9-2.7l-0.5,0.9l1,2.6c-0.1,0.2-0.2,0.6-0.5,1.2
	c-0.2,0.7-0.5,1.1-0.7,1.4c-0.2,0.3-0.3,0.6-0.6,0.7c-0.2,0.1-0.5,0.2-0.8,0.2l-1.1-0.1v0.8c0.5,0.1,0.8,0.2,1.1,0.2
	c0.5,0,0.8-0.1,1.1-0.2c0.3-0.1,0.6-0.5,0.8-0.7c0.2-0.3,0.6-0.9,0.9-1.8l4.2-10.8C108.3,6.7,107.3,6.4,107.3,6.4z"/>
</svg>
