<?xml version="1.0" encoding="utf-8"?>
<!-- Generator: Adobe Illustrator 19.1.0, SVG Export Plug-In . SVG Version: 6.00 Build 0)  -->
<!DOCTYPE svg PUBLIC "-//W3C//DTD SVG 1.1//EN" "http://www.w3.org/Graphics/SVG/1.1/DTD/svg11.dtd">
<svg version="1.1" id="Layer_1" xmlns="http://www.w3.org/2000/svg" xmlns:xlink="http://www.w3.org/1999/xlink" x="0px" y="0px"
	 viewBox="96.2 -59.8 120 60" style="enable-background:new 96.2 -59.8 120 60;" xml:space="preserve">
<style type="text/css">
	.st0{fill:#BBBBBB;}
</style>
<g>
	<path class="st0" d="M205-16.2v-1h-4.2V-20h3.4v-1h-3.4v-2.4h3.9v-1h-5v8.2H205z M193.8-17.3c-0.4-0.1-0.6-0.2-0.8-0.3l-0.3,0.9
		l0.4,0.2c0.2,0.1,0.3,0.1,0.6,0.2c0.2,0.1,0.5,0.1,0.7,0.2c0.3,0,0.6,0.1,0.9,0.1c1,0,1.7-0.2,2.2-0.6s0.8-0.9,0.8-1.7
		c0-0.4-0.1-0.7-0.2-1c-0.1-0.3-0.3-0.5-0.5-0.7s-0.5-0.4-0.8-0.5s-0.6-0.3-1-0.4c-0.3-0.1-0.5-0.2-0.7-0.3
		c-0.2-0.1-0.4-0.2-0.5-0.3c-0.2-0.1-0.3-0.3-0.4-0.4c-0.1-0.2-0.1-0.3-0.1-0.6c0-0.2,0-0.4,0.1-0.5c0.1-0.1,0.2-0.3,0.3-0.4
		c0.1-0.1,0.3-0.2,0.5-0.2s0.4-0.1,0.6-0.1c0.4,0,0.8,0.1,1.1,0.1c0.3,0.1,0.6,0.2,0.7,0.3l0.4-0.9c-0.2-0.1-0.5-0.2-0.9-0.4
		c-0.4-0.1-0.9-0.2-1.4-0.2c-0.9,0-1.5,0.2-2,0.6c-0.5,0.4-0.7,1-0.7,1.7c0,0.3,0.1,0.6,0.2,0.9c0.1,0.2,0.3,0.5,0.5,0.6
		c0.2,0.2,0.4,0.3,0.7,0.5c0.3,0.1,0.6,0.2,0.9,0.3l0.7,0.3c0.2,0.1,0.4,0.2,0.6,0.3c0.2,0.1,0.3,0.3,0.4,0.5
		c0.1,0.2,0.2,0.4,0.2,0.6c0,0.8-0.6,1.2-1.8,1.2C194.7-17.1,194.2-17.1,193.8-17.3 M187.4-17.3c-0.4-0.1-0.6-0.2-0.8-0.3l-0.3,0.9
		l0.4,0.2c0.2,0.1,0.3,0.1,0.6,0.2c0.2,0.1,0.5,0.1,0.7,0.2c0.3,0,0.6,0.1,0.9,0.1c1,0,1.7-0.2,2.2-0.6s0.8-0.9,0.8-1.7
		c0-0.4-0.1-0.7-0.2-1c-0.1-0.3-0.3-0.5-0.5-0.7s-0.5-0.4-0.8-0.5s-0.6-0.3-1-0.4c-0.3-0.1-0.5-0.2-0.7-0.3
		c-0.2-0.1-0.4-0.2-0.5-0.3c-0.2-0.1-0.3-0.3-0.4-0.4c-0.1-0.2-0.1-0.3-0.1-0.6c0-0.2,0-0.4,0.1-0.5c0.1-0.1,0.2-0.3,0.3-0.4
		c0.1-0.1,0.3-0.2,0.5-0.2s0.4-0.1,0.6-0.1c0.4,0,0.8,0.1,1.1,0.1c0.3,0.1,0.6,0.2,0.7,0.3l0.4-0.9c-0.2-0.1-0.5-0.2-0.9-0.4
		c-0.4-0.1-0.9-0.2-1.4-0.2c-0.9,0-1.5,0.2-2,0.6c-0.5,0.4-0.7,1-0.7,1.7c0,0.3,0.1,0.6,0.2,0.9c0.1,0.2,0.3,0.5,0.5,0.6
		c0.2,0.2,0.4,0.3,0.7,0.5c0.3,0.1,0.6,0.2,0.9,0.3l0.7,0.3c0.2,0.1,0.4,0.2,0.6,0.3c0.2,0.1,0.3,0.3,0.4,0.5
		c0.1,0.2,0.2,0.4,0.2,0.6c0,0.8-0.6,1.2-1.8,1.2C188.2-17.1,187.8-17.1,187.4-17.3 M180-19.3c0.2-0.7,0.5-1.4,0.7-2
		s0.5-1.3,0.8-1.9c0.3,0.6,0.5,1.2,0.8,1.9c0.3,0.6,0.5,1.3,0.8,2H180z M185.4-16.2c-0.3-0.9-0.6-1.7-0.9-2.4
		c-0.3-0.7-0.5-1.4-0.8-2.1s-0.5-1.3-0.8-1.9c-0.3-0.6-0.5-1.2-0.8-1.8H181c-0.3,0.6-0.6,1.2-0.8,1.8c-0.3,0.6-0.5,1.2-0.8,1.9
		c-0.3,0.7-0.5,1.4-0.8,2.1s-0.6,1.5-0.9,2.4h1.2l0.7-2.1h3.7l0.4,1.1c0.1,0.3,0.2,0.7,0.4,1C184.2-16.2,185.4-16.2,185.4-16.2z
		 M175.4-24.5c-0.2,0.2-0.4,0.5-0.7,0.8l-0.9,1c-0.3,0.3-0.7,0.7-1,1s-0.6,0.6-0.9,0.9v-3.6h-1.2v8.2h1.2v-3.9
		c0.3,0.2,0.7,0.5,1,0.7c0.4,0.3,0.7,0.6,1,1c0.3,0.3,0.7,0.7,1,1.1s0.6,0.7,0.8,1.1h1.4c-0.2-0.4-0.5-0.8-0.8-1.2
		c-0.3-0.4-0.7-0.8-1-1.2c-0.4-0.4-0.7-0.8-1.1-1.1c-0.4-0.3-0.7-0.6-1.1-0.9l0.9-0.9l1-1c0.3-0.3,0.7-0.7,1-1l0.8-0.9L175.4-24.5
		L175.4-24.5z M169.1-16.2v-1H165V-20h3.4v-1H165v-2.4h3.9v-1h-5v8.2C163.8-16.2,169.1-16.2,169.1-16.2z M159.4-23.5
		c0.3,0,0.5,0.1,0.7,0.3c0.2,0.1,0.4,0.3,0.5,0.5c0.1,0.2,0.2,0.5,0.2,0.8s-0.1,0.6-0.2,0.8c-0.1,0.2-0.3,0.4-0.5,0.5
		s-0.5,0.2-0.8,0.2s-0.7,0.1-1.1,0.1h-0.8v-3.1c0.3,0,0.6,0,1.1,0C158.8-23.5,159.1-23.5,159.4-23.5 M161.5-20.6
		c0.3-0.4,0.4-0.9,0.4-1.4c0-0.9-0.3-1.5-0.9-1.9c-0.6-0.4-1.5-0.7-2.6-0.7c-0.3,0-0.7,0-1.1,0c-0.4,0-0.8,0.1-1.1,0.2v8.1h1.2v-3.2
		h1.4h0.3l0.5,0.6c0.2,0.2,0.4,0.5,0.6,0.8s0.4,0.6,0.6,0.9s0.4,0.6,0.5,0.9h1.3c-0.1-0.3-0.3-0.6-0.5-1c-0.2-0.3-0.4-0.7-0.6-1
		s-0.4-0.6-0.6-0.9l-0.5-0.6C160.8-19.9,161.2-20.2,161.5-20.6 M149.6-19.3c0.2-0.7,0.5-1.4,0.7-2s0.5-1.3,0.8-1.9
		c0.3,0.6,0.5,1.2,0.8,1.9c0.2,0.6,0.5,1.3,0.8,2C152.7-19.3,149.6-19.3,149.6-19.3z M155-16.2c-0.3-0.9-0.6-1.7-0.9-2.4
		c-0.3-0.7-0.5-1.4-0.8-2.1s-0.5-1.3-0.8-1.9c-0.3-0.6-0.5-1.2-0.8-1.8h-1.1c-0.3,0.6-0.6,1.2-0.8,1.8c-0.3,0.6-0.5,1.2-0.8,1.9
		c-0.3,0.7-0.5,1.4-0.8,2.1s-0.6,1.5-0.9,2.4h1.2l0.7-2.1h3.8l0.4,1.1l0.4,1H155z M144.7-23.5c0.3,0,0.5,0.1,0.7,0.3
		c0.2,0.1,0.4,0.3,0.5,0.5c0.1,0.2,0.2,0.5,0.2,0.8s-0.1,0.6-0.2,0.8c-0.1,0.2-0.3,0.4-0.5,0.5s-0.5,0.2-0.8,0.3
		c-0.3,0.1-0.7,0.1-1.1,0.1h-0.9v-3.2c0.3,0,0.6,0,1.1,0C144.1-23.5,144.4-23.5,144.7-23.5 M142.6-24.5c-0.4,0-0.8,0.1-1.1,0.2v8.1
		h1.1v-3h0.9c0.6,0,1.1-0.1,1.6-0.1c0.5-0.1,0.8-0.2,1.2-0.5c0.3-0.2,0.6-0.5,0.7-0.8c0.2-0.3,0.3-0.7,0.3-1.2c0-0.9-0.3-1.5-0.9-2
		c-0.6-0.4-1.5-0.7-2.7-0.7C143.4-24.6,143-24.5,142.6-24.5 M135.6-17.3c-0.4-0.1-0.6-0.2-0.8-0.3l-0.3,0.9l0.4,0.2
		c0.2,0.1,0.3,0.1,0.6,0.2c0.2,0.1,0.5,0.1,0.7,0.2c0.3,0,0.6,0.1,0.9,0.1c1,0,1.7-0.2,2.2-0.6s0.8-0.9,0.8-1.7c0-0.4-0.1-0.7-0.2-1
		c-0.1-0.3-0.3-0.5-0.5-0.7s-0.5-0.4-0.8-0.5s-0.6-0.3-1-0.4c-0.3-0.1-0.5-0.2-0.7-0.3c-0.2-0.1-0.4-0.2-0.6-0.3
		c-0.2-0.1-0.3-0.3-0.4-0.4c-0.1-0.2-0.1-0.3-0.1-0.6c0-0.2,0-0.4,0.1-0.5c0.1-0.1,0.2-0.3,0.3-0.4c0.1-0.1,0.3-0.2,0.5-0.2
		s0.4-0.1,0.6-0.1c0.4,0,0.8,0.1,1.1,0.1c0.3,0.1,0.6,0.2,0.7,0.3l0.4-0.9c-0.2-0.1-0.5-0.2-0.9-0.4c-0.4-0.1-0.9-0.2-1.4-0.2
		c-0.9,0-1.5,0.2-2,0.6c-0.5,0.4-0.7,1-0.7,1.7c0,0.3,0.1,0.6,0.2,0.9c0.1,0.2,0.3,0.5,0.5,0.6c0.2,0.2,0.4,0.3,0.7,0.5
		c0.3,0.1,0.6,0.2,0.9,0.3l0.7,0.3c0.2,0.1,0.4,0.2,0.6,0.3c0.2,0.1,0.3,0.3,0.4,0.5c0.1,0.2,0.2,0.4,0.2,0.6c0,0.8-0.6,1.2-1.8,1.2
		C136.5-17.1,136-17.1,135.6-17.3"/>
	<path class="st0" d="M199.8-34.6v1h2.6v7.2h1.2v-7.2h2.6v-1H199.8z M196.2-33.6c0.3,0,0.5,0.1,0.7,0.2s0.4,0.3,0.5,0.5
		s0.2,0.5,0.2,0.8c0,0.3-0.1,0.6-0.2,0.8c-0.1,0.2-0.3,0.4-0.5,0.5s-0.5,0.2-0.8,0.2s-0.7,0.1-1.1,0.1h-0.8v-3.1c0.3,0,0.6,0,1.1,0
		C195.6-33.7,195.9-33.6,196.2-33.6 M198.3-30.7c0.3-0.4,0.4-0.9,0.4-1.4c0-0.9-0.3-1.5-0.9-1.9c-0.6-0.4-1.5-0.7-2.6-0.7
		c-0.3,0-0.7,0-1.1,0c-0.4,0-0.8,0.1-1.1,0.2v8.1h1.2v-3.2h1.4h0.3c0.2,0.2,0.3,0.4,0.5,0.6c0.2,0.2,0.4,0.5,0.6,0.8
		c0.2,0.3,0.4,0.6,0.6,0.9c0.2,0.3,0.4,0.6,0.5,0.9h1.3c-0.1-0.3-0.3-0.6-0.5-1c-0.2-0.3-0.4-0.7-0.6-1c-0.2-0.3-0.4-0.6-0.6-0.9
		l-0.7-0.5C197.6-30,198-30.3,198.3-30.7 M186.4-29.4c0.2-0.7,0.5-1.4,0.7-2c0.3-0.6,0.5-1.3,0.8-1.9c0.3,0.6,0.5,1.2,0.8,1.9
		c0.2,0.6,0.5,1.3,0.8,2H186.4z M191.8-26.4c-0.3-0.9-0.6-1.7-0.9-2.4s-0.5-1.4-0.8-2.1c-0.3-0.7-0.5-1.3-0.8-1.9
		c-0.3-0.6-0.5-1.2-0.8-1.8h-1.1c-0.3,0.6-0.6,1.2-0.8,1.8c-0.3,0.6-0.5,1.2-0.8,1.9s-0.5,1.4-0.8,2.1s-0.6,1.5-0.9,2.4h1.2l0.7-2.1
		h3.7l0.4,1.1c0.1,0.3,0.2,0.7,0.4,1H191.8z M180.3-26.4v-3.7h3.4v-1h-3.4v-2.5h3.8v-1h-5v8.2C179.1-26.4,180.3-26.4,180.3-26.4z
		 M174-27.4v-7.2h-1.1v8.2h4.9v-1H174z M171.3-26.4v-1h-4.2v-2.8h3.4v-1h-3.4v-2.4h3.9v-1h-5v8.2H171.3z M158.9-27.3h-0.4v-6.3h0.4
		h0.8c1.1,0,1.9,0.3,2.4,0.8c0.5,0.6,0.8,1.3,0.8,2.3s-0.3,1.8-0.8,2.3c-0.5,0.6-1.4,0.8-2.4,0.8L158.9-27.3 M163.8-32.3
		c-0.2-0.5-0.5-1-0.9-1.3c-0.4-0.4-0.9-0.6-1.5-0.8c-0.6-0.2-1.2-0.3-1.9-0.3c-0.3,0-0.7,0-1.1,0c-0.4,0-0.8,0.1-1.1,0.2v8
		c0.3,0.1,0.7,0.1,1.1,0.2c0.4,0,0.8,0,1.1,0c0.7,0,1.3-0.1,1.9-0.3c0.6-0.2,1-0.4,1.4-0.8c0.4-0.3,0.7-0.8,0.9-1.3
		c0.2-0.5,0.3-1.1,0.3-1.9C164.1-31.2,164-31.8,163.8-32.3 M150.4-27.3H150v-6.3h0.4h0.8c1.1,0,1.9,0.3,2.4,0.8
		c0.5,0.6,0.8,1.3,0.8,2.3s-0.3,1.8-0.8,2.3c-0.5,0.6-1.4,0.8-2.4,0.8L150.4-27.3 M155.3-32.3c-0.2-0.5-0.5-1-0.9-1.3
		c-0.4-0.3-0.9-0.6-1.4-0.8c-0.6-0.2-1.2-0.3-1.8-0.3c-0.3,0-0.7,0-1.1,0c-0.4,0-0.8,0.1-1.1,0.2v8c0.3,0.1,0.7,0.1,1.1,0.2
		c0.4,0,0.8,0,1.1,0c0.7,0,1.3-0.1,1.8-0.3c0.6-0.2,1-0.4,1.4-0.8c0.4-0.3,0.7-0.8,0.9-1.3s0.3-1.1,0.3-1.9
		C155.6-31.2,155.5-31.8,155.3-32.3 M145.5-26.4h1.1v-8.2h-1.1V-26.4z M139.7-27.5l0.3-0.7l0.4-0.9l0.5-1.1l0.5-1
		c0.2-0.3,0.3-0.6,0.4-0.9l0.3-0.6c0.1,0.9,0.2,1.9,0.2,3c0.1,1.1,0.1,2.2,0.1,3.3h1.1c-0.1-2.8-0.3-5.6-0.6-8.2h-1
		c-0.2,0.3-0.4,0.8-0.7,1.2c-0.2,0.5-0.5,1-0.7,1.5s-0.5,1-0.7,1.6l-0.6,1.4l-0.6-1.4c-0.2-0.5-0.5-1-0.7-1.6
		c-0.2-0.5-0.5-1-0.7-1.5s-0.5-0.9-0.7-1.2h-1c-0.1,0.6-0.1,1.2-0.2,1.9c-0.1,0.7-0.1,1.3-0.2,2c0,0.8-0.1,1.5-0.1,2.2
		s-0.1,1.4-0.1,2.2h1.1c0-1.1,0.1-2.2,0.1-3.3c0.1-1.1,0.1-2.1,0.2-3l0.3,0.6c0.1,0.3,0.3,0.5,0.4,0.9l0.5,1l0.5,0.9l0.4,0.9
		l0.3,0.7L139.7-27.5L139.7-27.5z M111.1-29.8h18.5V-32c0,0-0.1-2.6-2.8-2.6h-17.3c0,0-3.3-0.2-3.3,3.3l-0.1,8h19v2.3h-19v2.7
		c0,0,0.3,2.2,2.7,2.2H126c0,0,3.5-0.1,3.5-3.4v-8.1h-18.4C111.1-27.6,111.1-29.8,111.1-29.8z M117.8-36.7c1.9,0,3.4-1.5,3.4-3.4
		c0-1.9-1.5-3.4-3.4-3.4s-3.4,1.5-3.4,3.4C114.4-38.2,116-36.7,117.8-36.7"/>
</g>
</svg>
