<?xml version="1.0" encoding="utf-8"?>
<!-- Generator: Adobe Illustrator 19.1.0, SVG Export Plug-In . SVG Version: 6.00 Build 0)  -->
<!DOCTYPE svg PUBLIC "-//W3C//DTD SVG 1.1//EN" "http://www.w3.org/Graphics/SVG/1.1/DTD/svg11.dtd">
<svg version="1.1" id="Layer_1" xmlns="http://www.w3.org/2000/svg" xmlns:xlink="http://www.w3.org/1999/xlink" x="0px" y="0px"
	 viewBox="20 -56 120 60" style="enable-background:new 20 -56 120 60;" xml:space="preserve">
<style type="text/css">
	.st0{fill:#BBBBBB;}
	.st1{font-family:'ArialMT';}
	.st2{font-size:6.4502px;}
</style>
<path class="st0" d="M70.9-34.3h-2.1v3.4h2.1c1,0,1.4-0.3,1.4-1.1v-1.2C72.3-34.1,71.9-34.3,70.9-34.3 M70.9-30h-2v3h-1.1v-8.3H71
	c1.8,0,2.4,0.8,2.4,2.1v1.2c0,1-0.4,1.7-1.3,2l2.2,3.1h-1.4L70.9-30z"/>
<path class="st0" d="M78.2-31.2l3.3,4.3h-1.3L77-31.2l3-4.1h1.3L78.2-31.2z M76.8-26.9h-1.1v-8.4h1.1V-26.9z"/>
<polygon class="st0" points="83,-35.3 87.9,-35.3 87.9,-34.3 84.1,-34.3 84.1,-31.7 87.7,-31.7 87.7,-30.8 84.1,-30.8 84.1,-27.9 
	88,-27.9 88,-26.9 83,-26.9 "/>
<path class="st0" d="M90.7-27.9h1.8c1.3,0,1.6-0.5,1.6-1.5v-3.4c0-1-0.4-1.5-1.6-1.5h-1.8V-27.9z M92.5-35.3c2,0,2.7,1.1,2.7,2.4
	v3.6c0,1.3-0.6,2.4-2.7,2.4h-2.9v-8.4H92.5L92.5-35.3z"/>
<path class="st0" d="M99.1-26.8c-0.8,0-1.8-0.1-2.5-0.4l0.2-0.9c0.8,0.2,1.6,0.4,2.3,0.4c1.3,0,1.6-0.4,1.6-1.3c0-1.1,0-1.2-1.7-1.6
	c-2-0.4-2.3-0.8-2.3-2.6c0-1.5,0.6-2.2,2.7-2.2c0.7,0,1.6,0.1,2.3,0.3l-0.1,0.9c-0.7-0.1-1.5-0.2-2.1-0.2c-1.4,0-1.6,0.3-1.6,1.2
	c0,1.2,0,1.2,1.7,1.6c2.2,0.6,2.3,0.9,2.3,2.5C101.9-27.7,101.4-26.8,99.1-26.8"/>
<path class="st0" d="M104.6-27.9h1.8c1.3,0,1.6-0.5,1.6-1.5v-3.4c0-1-0.4-1.5-1.6-1.5h-1.8V-27.9z M106.4-35.3c2,0,2.7,1.1,2.7,2.4
	v3.6c0,1.3-0.6,2.4-2.7,2.4h-2.9v-8.4H106.4L106.4-35.3z"/>
<path class="st0" d="M113.7-34.5l-1.5,4.6h3L113.7-34.5z M117.3-26.9h-1.1l-0.7-2H112l-0.7,2h-1.1l2.8-8.4h1.5L117.3-26.9z"/>
<polygon class="st0" points="119.5,-34.3 117,-34.3 117,-35.3 123.1,-35.3 123.1,-34.3 120.6,-34.3 120.6,-26.9 119.5,-26.9 "/>
<path class="st0" d="M126.4-34.5l-1.5,4.6h3L126.4-34.5z M130-26.9h-1.1l-0.7-2h-3.5l-0.7,2h-1.1l2.8-8.3h1.5L130-26.9z"/>
<polygon class="st0" points="35,-35.3 35,-30.9 32.8,-35.3 30,-35.3 30,-26.9 32.4,-26.9 32.4,-31.2 34.6,-26.9 37.4,-26.9 
	37.4,-35.3 "/>
<polygon class="st0" points="43.4,-35.3 43.4,-30.9 41.2,-35.3 38.4,-35.3 38.4,-26.9 40.8,-26.9 40.8,-31.2 43,-26.9 45.8,-26.9 
	45.8,-35.3 "/>
<text transform="matrix(1 0 0 1 49.0943 -18.6418)" class="st0 st1 st2">– viden der skaber værdi</text>
<polygon class="st0" points="50.9,-33.7 50.7,-26.9 49.7,-26.9 50,-35.3 51.3,-35.3 53.7,-28.8 56.1,-35.3 57.5,-35.3 57.8,-26.9 
	56.8,-26.9 56.6,-33.7 54.5,-28 53,-28 "/>
<path class="st0" d="M62.7-34.5l-1.5,4.6h3L62.7-34.5z M66.3-26.9h-1.1l-0.7-2H61l-0.7,2h-1.1l2.8-8.4h1.5L66.3-26.9z"/>
</svg>
