<?xml version="1.0" encoding="utf-8"?>
<!-- Generator: Adobe Illustrator 19.1.0, SVG Export Plug-In . SVG Version: 6.00 Build 0)  -->
<!DOCTYPE svg PUBLIC "-//W3C//DTD SVG 1.1//EN" "http://www.w3.org/Graphics/SVG/1.1/DTD/svg11.dtd">
<svg version="1.1" id="Layer_1" xmlns="http://www.w3.org/2000/svg" xmlns:xlink="http://www.w3.org/1999/xlink" x="0px" y="0px"
	 viewBox="930.3 -18.3 120 60" style="enable-background:new 930.3 -18.3 120 60;" xml:space="preserve">
<style type="text/css">
	.st0{fill:#BBBBBB;}
	.st1{fill:#DDDDDD;}
</style>
<g>
	<path class="st0" d="M958.8,14.4c0,0.2,0,0.5-0.1,0.7l-0.4,1.9c-0.2,1.2-0.9,2-1.9,2.4c-0.4,0.2-0.9,0.3-1.5,0.4h-8.3l-0.6,2.9
		h-5.7l2.2-10.4h14C958,12.4,958.8,13.1,958.8,14.4L958.8,14.4z M953.2,14.2h-5.4L947,18h5.4L953.2,14.2z M975.1,12.3
		c1.5,0.1,2.3,0.8,2.3,2.1c0,0.2,0,0.5-0.1,0.7l-1,4.8c-0.2,1.2-0.9,2-1.9,2.5c-0.4,0.2-0.9,0.3-1.5,0.3h-10.8
		c-1.5-0.1-2.3-0.8-2.3-2.1c0-0.2,0-0.5,0.1-0.7l1-4.8c0.2-1.2,0.9-2,1.9-2.4c0.4-0.2,0.9-0.3,1.5-0.4L975.1,12.3L975.1,12.3z
		 M966.8,14.2l-1.4,6.7h5l1.4-6.7H966.8L966.8,14.2z M996.9,22.8h-18.6l2.2-10.4h5.7l-1.8,8.6h2.1l1.8-8.6h5.7l-1.8,8.6h2.1l1.8-8.6
		h5.7l-1.6,7.6c-0.2,1.2-0.9,2-1.9,2.4C997.9,22.6,997.4,22.7,996.9,22.8z M1039.1,12.6C1039.1,12.6,1039.1,12.6,1039.1,12.6
		c-0.1,0-0.1-0.1-0.2-0.1c-0.1,0-0.2-0.1-0.3-0.1c0,0-0.1,0-0.1,0c-0.1,0-0.3,0-0.5-0.1h-14l-2.2,10.4h5.7l0.6-2.9h4.5l0.6,2.9h5.8
		l-0.7-3.5c0.8-0.5,1.3-1.2,1.6-2.3l0.4-1.9c0-0.3,0.1-0.5,0.1-0.7C1040.3,13.5,1039.9,12.9,1039.1,12.6z M1032.3,18h-3.7l0.7-3.5
		l0.1-0.3h5.4l-0.8,3.8H1032.3L1032.3,18z M1004.5,12.3l-2.2,10.4v0h17.4l0.4-1.9l-11.7,0l0.5-2.4h6.7l0.4-1.8h-6.7l0.5-2.5h0
		l11.4,0l0.4-1.8L1004.5,12.3z"/>
</g>
<path class="st0" d="M958.8,14.4c0,0.2,0,0.5-0.1,0.7l-0.4,1.9c-0.2,1.2-0.9,2-1.9,2.4c-0.4,0.2-0.9,0.3-1.5,0.4h-8.3l-0.6,2.9h-5.7
	l2.2-10.4h14C958,12.4,958.8,13.1,958.8,14.4L958.8,14.4z M953.2,14.2h-5.4L947,18h5.4L953.2,14.2z M975.1,12.3
	c1.5,0.1,2.3,0.8,2.3,2.1c0,0.2,0,0.5-0.1,0.7l-1,4.8c-0.2,1.2-0.9,2-1.9,2.5c-0.4,0.2-0.9,0.3-1.5,0.3h-10.8
	c-1.5-0.1-2.3-0.8-2.3-2.1c0-0.2,0-0.5,0.1-0.7l1-4.8c0.2-1.2,0.9-2,1.9-2.4c0.4-0.2,0.9-0.3,1.5-0.4L975.1,12.3L975.1,12.3z
	 M966.8,14.2l-1.4,6.7h5l1.4-6.7H966.8L966.8,14.2z M996.9,22.8h-18.6l2.2-10.4h5.7l-1.8,8.6h2.1l1.8-8.6h5.7l-1.8,8.6h2.1l1.8-8.6
	h5.7l-1.6,7.6c-0.2,1.2-0.9,2-1.9,2.4C997.9,22.6,997.4,22.7,996.9,22.8z M1039.1,12.6C1039.1,12.6,1039.1,12.6,1039.1,12.6
	c-0.1,0-0.1-0.1-0.2-0.1c-0.1,0-0.2-0.1-0.3-0.1c0,0-0.1,0-0.1,0c-0.1,0-0.3,0-0.5-0.1h-14l-2.2,10.4h5.7l0.6-2.9h4.5l0.6,2.9h5.8
	l-0.7-3.5c0.8-0.5,1.3-1.2,1.6-2.3l0.4-1.9c0-0.3,0.1-0.5,0.1-0.7C1040.3,13.5,1039.9,12.9,1039.1,12.6z M1032.3,18h-3.7l0.7-3.5
	l0.1-0.3h5.4l-0.8,3.8H1032.3L1032.3,18z"/>
<path class="st1" d="M980.9,10.5h21.4l-24.6-10l7.4,7.1L980.9,10.5z"/>
</svg>
