<?xml version="1.0" encoding="utf-8"?>
<!-- Generator: Adobe Illustrator 19.1.0, SVG Export Plug-In . SVG Version: 6.00 Build 0)  -->
<!DOCTYPE svg PUBLIC "-//W3C//DTD SVG 1.1//EN" "http://www.w3.org/Graphics/SVG/1.1/DTD/svg11.dtd">
<svg version="1.1" id="Layer_1" xmlns="http://www.w3.org/2000/svg" xmlns:xlink="http://www.w3.org/1999/xlink" x="0px" y="0px"
	 viewBox="-22 12 120 60" style="enable-background:new -22 12 120 60;" xml:space="preserve">
<style type="text/css">
	.st0{fill:#BBBBBB;}
</style>
<g>
	<path class="st0" d="M60.5,26.9c0.2,0.1,0.4,0.4,0.4,0.6v1.8c0,0.5-0.1,0.7-0.7,0.8l-2.3,0.7c-0.6,0.1-1.1,0.4-1.5,0.7
		c-0.8,0.5-1.2,1.2-1.4,2.1l-0.1,1.1v2.2c0,0.1,0,0.1,0.1,0.1h5.3c0.1,0,0.2,0.1,0.2,0.2V39c0,0.4-0.1,0.5-0.5,0.6L58.5,40L55,41.1
		c-0.2,0.1-0.2,0.1-0.2,0.4v14.4c0,0.2-0.1,0.5-0.5,0.5h-5c-0.2,0-0.4-0.2-0.4-0.5V34.6c0-0.9,0.1-1.8,0.4-2.7
		c0.4-1.3,1.2-2.2,2.3-2.9c0.9-0.5,1.9-0.8,2.8-1.1c1.2-0.4,2.5-0.6,3.8-0.7c0.6-0.1,1.1-0.2,1.6-0.2h0.1
		C60,26.9,60.3,26.9,60.5,26.9z M-1.8,28.8c0.7,0,1.5,0,2.2,0.1l3.2,0.4l3.8,0.7h0.1C8,30,8.1,30.3,8.1,30.7L8,33
		c0,0.4-0.2,0.5-0.5,0.5c-0.5,0-0.9,0-1.5-0.1h-6.8c-0.8,0-1.6,0-2.5,0.2l-0.9,0.2c-0.6,0.2-1.1,0.7-1.1,1.4v1.2
		c0,0.2,0.1,0.5,0.4,0.7c0.2,0.2,0.5,0.4,0.7,0.5c0.7,0.5,1.5,0.8,2.3,1.2l6,2.7c1.2,0.6,2.3,1.1,3.4,1.9C8,43.6,8.4,44,8.9,44.5
		c0.7,0.8,1.1,1.6,1.2,2.7c0.1,1.1,0.1,2,0.1,3s-0.4,2.1-0.8,2.9c-0.6,1.1-1.5,1.9-2.6,2.5c-1.1,0.6-2.1,0.9-3.3,1.1
		c-0.8,0.1-1.8,0.2-2.7,0.4l-2.5,0.1c-0.8,0-1.5,0-2.3-0.1c-0.7,0-1.4-0.1-2-0.2c-1.2-0.1-2.3-0.4-3.5-0.6c-0.8-0.1-1.3-0.2-1.8-0.2
		c-0.1,0-0.2,0-0.2-0.1c-0.4-0.1-0.5-0.2-0.5-0.6l0.1-2c0-0.1,0-0.4,0.1-0.5c0-0.4,0.2-0.5,0.5-0.5c0.6,0,1.1,0,1.6,0.1h8.1
		c0.9,0,1.9-0.1,2.8-0.4C1.6,52,2,51.8,2.4,51.6c0.6-0.4,0.9-0.9,0.9-1.6v-1.4c-0.1-0.4-0.2-0.7-0.5-0.9c-0.2-0.2-0.6-0.5-0.9-0.7
		c-0.8-0.5-1.8-0.9-2.7-1.4l-5.7-2.7c-0.9-0.5-1.9-0.9-2.7-1.6c-0.5-0.4-0.8-0.7-1.2-1.1c-0.6-0.7-0.9-1.6-1.1-2.6
		c-0.1-0.9-0.1-1.9,0-2.7c0-0.7,0.1-1.4,0.4-2c0.5-1.6,1.5-2.7,3.2-3.4c0.7-0.4,1.5-0.5,2.3-0.6C-4.3,28.9-3,28.9-1.8,28.8z
		 M44.4,46.7c0,0.8,0,1.8-0.1,2.6c-0.1,1.2-0.4,2.3-0.7,3.4C43,54.2,42,55.2,40.5,56c-0.8,0.4-1.6,0.6-2.6,0.7
		c-0.8,0.1-1.5,0.2-2.3,0.2h-1.8c-1.3-0.1-2.6-0.2-3.9-0.7c-1.9-0.7-3-2-3.8-3.8c-0.2-0.8-0.5-1.5-0.5-2.3c-0.1-1.4-0.2-2.8-0.1-4.2
		c0-1.2,0.1-2.3,0.4-3.5c0.1-0.8,0.5-1.6,0.8-2.3c0.7-1.2,1.6-2.1,2.9-2.6c0.9-0.4,1.9-0.6,2.8-0.7c0.9-0.1,1.9-0.1,2.8-0.1
		c1.2,0,2.3,0.1,3.5,0.4c0.9,0.2,1.8,0.5,2.6,1.1c1.1,0.7,1.9,1.6,2.3,2.9c0.2,0.7,0.5,1.5,0.6,2.2C44.4,44.2,44.4,45.4,44.4,46.7z
		 M38.6,46.6c0-1.1,0-2.1-0.1-3.2c0-0.6-0.1-1.2-0.4-1.8c-0.4-0.8-0.8-1.3-1.8-1.5C36,40,35.6,40,35.3,40c-0.6-0.1-1.2,0-1.8,0.1
		c-0.7,0.1-1.3,0.6-1.6,1.3l-0.4,1.1c-0.1,0.8-0.2,1.6-0.2,2.5c0,1.6,0,3.2,0.1,4.8c0,0.5,0.1,1.1,0.2,1.5c0.4,0.9,0.9,1.6,2,1.8
		l0.9,0.1c0.6,0,1.1,0,1.5-0.1c0.8-0.1,1.4-0.6,1.8-1.3l0.4-1.1c0.1-0.8,0.2-1.6,0.2-2.6C38.6,47.6,38.6,47.2,38.6,46.6z M78.2,47.5
		v5.4c0,0.4,0,0.7-0.1,1.1c-0.2,0.9-0.8,1.5-1.6,2c-0.5,0.2-1.1,0.5-1.6,0.5c-0.7,0.1-1.4,0.2-2.1,0.2c-0.8,0.1-1.6,0.1-2.5,0.1
		h-1.1c-0.9,0-1.8,0-2.7-0.1c-1.1-0.1-2-0.2-2.9-0.7c-0.9-0.4-1.6-0.9-2.2-1.8c-0.5-0.7-0.7-1.4-0.9-2.2c-0.1-0.5-0.1-0.9-0.1-1.5
		c0-0.7,0-1.4,0.2-2.1c0.2-1.2,0.9-2.1,2-2.7c0.8-0.5,1.6-0.7,2.6-0.9l3.2-0.6c0.8-0.1,1.8-0.2,2.7-0.4l1.3-0.1h0.1
		c0.2,0,0.2,0,0.2-0.2V42c0-0.8-0.5-1.3-1.2-1.5c-0.4-0.1-0.8-0.2-1.2-0.2h-6.4c-0.5,0-0.7-0.1-0.6-0.7v-1.4c0-0.4,0.1-0.6,0.5-0.7
		l0.9-0.4c1.1-0.4,2.1-0.6,3.3-0.7c0.6-0.1,1.3-0.2,1.9-0.2h1.9c0.9,0,2,0.2,2.9,0.5c0.6,0.1,1.1,0.4,1.5,0.7
		c1.2,0.7,1.9,1.8,2.1,3.2c0.1,0.5,0.1,1.1,0.1,1.5C78.2,44,78.2,45.8,78.2,47.5L78.2,47.5z M72.5,46.6h-0.4
		c-1.3,0.2-2.5,0.6-3.8,1.1c-0.5,0.1-0.9,0.4-1.4,0.6C66.4,48.6,66,49,66,49.6c-0.1,0.5,0,1.1,0,1.5c0,0.1,0,0.2,0.1,0.4
		c0.1,0.8,0.7,1.3,1.4,1.5c0.5,0.1,1.1,0.2,1.6,0.2h3.2c0.1,0,0.1,0,0.1-0.1C72.5,53.1,72.5,46.6,72.5,46.6z M13.4,43.2V30.4
		c0-0.4,0.2-0.6,0.7-0.7l0.9-0.2l3.3-0.6h0.5c0.2,0,0.4,0.1,0.5,0.4v7.4c0,0.2,0,0.2,0.2,0.2h4.9c0.4,0,0.5,0.1,0.5,0.5V39
		c0,0.2-0.1,0.5-0.4,0.5c-0.5,0.1-0.9,0.2-1.4,0.5l-3.6,1.1h-0.1l-0.1,0.1v14.5c0,0.2-0.1,0.5-0.5,0.5h-5c-0.2,0-0.4-0.1-0.4-0.4
		L13.4,43.2L13.4,43.2z M87.9,41.8v1.5c0,0.6-0.4,0.9-0.9,1.1h-3.5c-0.4-0.1-0.6-0.4-0.7-0.7v-3.5c0.1-0.5,0.4-0.8,0.9-0.8h3.2
		c0.2,0,0.5,0.1,0.7,0.2c0.2,0.2,0.4,0.5,0.4,0.8V41.8z M85.4,54.2h-1.5c-0.5,0-0.9-0.4-0.9-0.8V50c0.1-0.6,0.5-0.9,1.1-0.9h3
		c0.6,0,1.1,0.5,1.1,1.1v3c0,0.4-0.1,0.7-0.5,0.9c-0.1,0.1-0.4,0.1-0.5,0.1C87.1,54.2,85.4,54.2,85.4,54.2z"/>
</g>
</svg>
