<?xml version="1.0" encoding="utf-8"?>
<!-- Generator: Adobe Illustrator 19.1.0, SVG Export Plug-In . SVG Version: 6.00 Build 0)  -->
<!DOCTYPE svg PUBLIC "-//W3C//DTD SVG 1.1//EN" "http://www.w3.org/Graphics/SVG/1.1/DTD/svg11.dtd">
<svg version="1.1" id="Layer_1" xmlns="http://www.w3.org/2000/svg" xmlns:xlink="http://www.w3.org/1999/xlink" x="0px" y="0px"
	 viewBox="27.8 -20.8 120 60" style="enable-background:new 27.8 -20.8 120 60;" xml:space="preserve">
<style type="text/css">
	.st0{fill:#BBBBBB;}
</style>
<g>
	<path class="st0" d="M48.4,8.2h-3.8l-2.1,10.6l-2-10.6h-4.3l-2,10.6L32.1,8.2h-4.3l4,16.3h4.5l1.9-11.3l2.1,11.3h4.5L48.4,8.2z
		 M58.6,11.2h-5.1c-3.6,0-4.5,2.9-4.5,4.6v5.1c0,2.1,1.3,3.6,3.5,3.6h5.1c3.3,0,4.6-2.5,4.6-4.7v-5.1C62.1,13.4,61.1,11.2,58.6,11.2
		z M58.2,20.2c0,0.4-0.4,0.6-0.6,0.6H54c-0.4,0-1.1-0.2-1.1-1.1v-4.5c0-0.4,0.3-0.5,0.5-0.5h3.6c0.5,0,1.1,0.3,1.1,1.1V20.2z
		 M67.8,11.2h-3.6v13.4h4.1V15c1.2-0.2,2.7-0.4,3.5-0.4h0.5v-3.8c-1.2,0-2.8,0.6-4.1,1.1C68.2,12,67.8,11.2,67.8,11.2z M86.4,15.2
		c0-3.5-2.4-4.3-4-4.3c-1.5,0-3.2,0.5-4.6,1V7.4h-4v17.1h4v-5.3l3.8,5.3h4.5l-3.7-5.1C84,19.4,86.4,18.1,86.4,15.2z M80.9,17.3h-3.1
		v-2.5c1.3-0.2,2.6-0.4,3.3-0.4c0.9,0,1.5,0.6,1.5,1.4C82.6,16.4,82.3,17.3,80.9,17.3z M99.4,14.1c0-1.6-0.8-2.9-3-2.9h-6.8v3.2h5.2
		c0.3,0,0.5,0.2,0.5,0.6V16h-3.3c-3.6,0-4.3,2.3-4.3,3.8v1c0,3.4,2.6,4,3.5,4h0.8c1.1,0,2.6-0.6,3.8-1.3l0.5,1h3L99.4,14.1
		L99.4,14.1z M95.4,21.1c-1.2,0.3-2,0.5-2.9,0.5c-0.7,0-1.1-0.5-1.1-1.1v-1.4c0-0.4,0.3-0.5,0.6-0.5h3.5
		C95.4,18.6,95.4,21.1,95.4,21.1z M117.3,24.5l3.7-13.4h-4.5l-1.6,9.9l-2.2-9.9h-4l-2.1,9.6l-1.6-9.6h-4.6l3.8,13.4h4.8l1.6-7.2
		l1.9,7.2H117.3z M129.5,11.2h-6.8v3.2h5.2c0.3,0,0.5,0.2,0.5,0.6V16h-3.3c-3.6,0-4.3,2.3-4.3,3.8v1c0,3.4,2.6,4,3.5,4h0.8
		c1.1,0,2.6-0.6,3.8-1.3l0.5,1h3V14.1C132.5,12.5,131.7,11.2,129.5,11.2z M128.5,21.1c-1.2,0.3-2,0.5-2.9,0.5
		c-0.7,0-1.1-0.5-1.1-1.1v-1.4c0-0.4,0.3-0.5,0.6-0.5h3.5C128.5,18.6,128.5,21.1,128.5,21.1z M143.2,11.2l-2.7,9.9l-2.7-9.9h-4.6
		l4.9,13.4c-0.3,0.5-0.8,1.1-1.9,1.1c-0.5,0-0.9,0-1.6,0v3.5c1.1,0.3,1.8,0.3,2.7,0.3c3.3,0,4.9-2.8,5.6-4.8l4.8-13.4
		C147.8,11.2,143.2,11.2,143.2,11.2z M45.1,32.8v-1.7c0-0.2,0.1-0.4,0.4-0.4H47v-0.5h-1.4c-0.6,0-1,0.4-1,1v1.6c0,1,0.8,1.1,0.9,1.1
		c0.7,0,1.3-0.2,1.6-0.3v-0.4c-0.3,0.1-1,0.2-1.5,0.2C45.2,33.4,45.1,33.2,45.1,32.8z M49.8,30.3l-1.6,3.6h0.5l0.3-0.7h2l0.3,0.7
		h0.6l-1.6-3.6C50.3,30.3,49.8,30.3,49.8,30.3z M49.2,32.7l0.8-2l0.8,2H49.2z M55.1,33.4l-1.3-3.1h-0.6v3.6h0.5v-2.3l0-0.5l0.2,0.5
		l0.9,2.3h0.5l0.9-2.3l0.2-0.6l0,0.6v2.3h0.4v-3.6h-0.6L55.1,33.4z M60.2,30.3h-1.6v3.6h0.5V33H60c0.3,0,1.3-0.1,1.3-1.2v-0.4
		C61.4,30.6,60.8,30.3,60.2,30.3z M60.9,31.9c0,0.5-0.4,0.7-0.9,0.7h-0.9v-1.9h1.1c0.3,0,0.7,0.1,0.7,0.7
		C60.9,31.4,60.9,31.9,60.9,31.9z M65.4,33.8h0.5v-1.5h1.6V32h-1.6v-1.2h1.8v-0.4h-2.3V33.8z M71.2,30.3h-1.2c-0.9,0-1,0.7-1,1v1.6
		c0,1,0.8,1,0.9,1h1.2c0.8,0,1-0.6,1-1v-1.5C72.2,30.4,71.5,30.3,71.2,30.3z M71.7,32.9c0,0.2-0.1,0.4-0.4,0.4h-1.2
		c-0.4,0-0.6-0.3-0.6-0.6v-1.6c0-0.3,0.1-0.5,0.4-0.5h1.1c0.4,0,0.6,0.3,0.6,0.7L71.7,32.9L71.7,32.9z M76.6,31.7v-0.2
		c0-0.9-0.6-1.2-1.2-1.2h-1.6v3.6h0.5v-1h0.9l0.2,0l0.6,1h0.6l-0.7-1.1C76.3,32.6,76.6,32.3,76.6,31.7z M75.3,32.4h-0.9v-1.7h1.1
		c0.3,0,0.7,0.1,0.7,0.7v0.3C76.2,32.2,75.8,32.4,75.3,32.4z M80.6,30.3h0.5v3.6h-0.5V30.3z M84.2,33.4l-1.1-3.2h-0.5l1.4,3.6h0.6
		l1.3-3.6h-0.5L84.2,33.4z M89.3,32.2h1.6v-0.4h-1.6v-1.1h1.8v-0.4h-2.5l-2.4,3.6h0.6l0.5-0.7h1.6v0.7h2.3v-0.5h-1.8
		C89.3,33.4,89.3,32.2,89.3,32.2z M88.9,32.7h-1.4l1.4-2.1V32.7z M95.4,31.7v-0.2c0-0.9-0.6-1.2-1.2-1.2h-1.6v3.6h0.5v-1h0.9l0.2,0
		l0.6,1h0.6l-0.7-1.1C95.1,32.6,95.4,32.3,95.4,31.7z M94.1,32.4h-0.9v-1.7h1.1c0.3,0,0.7,0.1,0.7,0.7v0.3
		C95,32.2,94.6,32.4,94.1,32.4z M100.1,30.3h-0.6L98,31.8h-0.4v-1.5h-0.5v3.6h0.5v-1.6H98l1.5,1.6h0.7L98.4,32L100.1,30.3z
		 M103.5,31.8h-1.4V31c0-0.1,0-0.3,0.3-0.3h1.4v-0.4h-1.3c-0.6,0-0.9,0.3-0.9,0.8v0.8c0,0.3,0.1,0.5,0.5,0.5h1.4v0.8
		c0,0.4-0.4,0.4-0.5,0.4c-0.6,0-1.3-0.1-1.5-0.1v0.4c0.5,0.1,1.1,0.1,1.6,0.1c0.1,0,0.9-0.1,0.9-0.9v-0.7
		C104,32,103.9,31.8,103.5,31.8z M108.3,32.2h1.6v-0.4h-1.6v-1.1h1.8v-0.4h-2.5l-2.4,3.6h0.6l0.5-0.7h1.6v0.7h2.3v-0.5h-1.8
		L108.3,32.2L108.3,32.2z M107.9,32.7h-1.4l1.4-2.1V32.7z M111.4,30.7h1.1v3.1h0.5v-3.1h1.1v-0.4h-2.7V30.7z M115.2,30.7h1.1v3.1
		h0.5v-3.1h1.1v-0.4h-2.7L115.2,30.7z M119.9,32.2h1.7v-0.4h-1.7v-1.1h1.8v-0.4h-2.3v3.6h2.4v-0.5h-1.9V32.2z M126,31.7v-0.2
		c0-0.9-0.6-1.2-1.2-1.2h-1.6v3.6h0.5v-1h0.9l0.2,0l0.6,1h0.6l-0.7-1.1C125.7,32.6,126,32.3,126,31.7z M124.7,32.4h-0.9v-1.7h1.1
		c0.3,0,0.7,0.1,0.7,0.7v0.3C125.6,32.2,125.2,32.4,124.7,32.4z M128.2,32.2h1.7v-0.4h-1.7v-1.1h1.8v-0.4h-2.3v3.6h2.4v-0.5h-1.9
		V32.2z M76.8-5.5c0,0,0.3,0,1.1,0.2c0.1,5.5,4.5,9.9,10,9.9c5.5,0,10-4.5,10-10c0-0.9-0.1-1.8-0.4-2.6l0.7-2.4
		c0.1-0.3,0.1-0.6-0.1-0.8c-0.2-0.2-0.4-0.3-0.7-0.3l-0.2,0L96-11.3c-1.8-2.5-4.7-4.1-8.1-4.1c-4.8,0-8.8,3.4-9.7,7.9l-1.5,0.3
		C76.2-7.1,76-6.8,76-6.3C76-5.9,76.4-5.6,76.8-5.5z M87.9,3.9c-5.1,0-9.2-4.1-9.3-9.1c0.8,0.2,2,0.5,3.8,0.9l0.9,5.2
		c0.1,0.3,0.2,0.5,0.5,0.7L84,1.6c0.2,0,0.4-0.1,0.5-0.2l5-3.6C92.4-1,94.1-0.1,94.1,0c0.1,0.1,0.3,0.1,0.4,0.1l0.2,0
		c0.2-0.1,0.4-0.2,0.5-0.5l0-0.1l0-0.1l1.7-6.3c0.1,0.4,0.1,0.9,0.1,1.3C97.2-0.3,93,3.9,87.9,3.9z M87.9-14.8c3,0,5.7,1.4,7.4,3.6
		L78.8-7.7C79.8-11.8,83.5-14.8,87.9-14.8z M76.8-6.6L78-6.9L78.7-7l17.5-3.7l0.1,0l1-0.2l0,0l0.2,0.1c0.1,0.1,0.1,0.2,0,0.2
		l-2.8,10l-0.1,0.1l-0.1,0l-0.1,0c0,0-0.8-0.5-2.3-1.2h0l-5.3-2.6l0.9,2.6l-3.6,2.6l-0.1,0l-0.1,0l-0.1-0.2l-0.9-5.6
		c-2-0.5-3.4-0.8-4.3-1l-0.1,0l-0.2-0.1l0,0L77.9-6l0,0c-0.8-0.2-1.1-0.2-1.1-0.2c-0.1,0-0.2-0.1-0.2-0.2
		C76.6-6.5,76.7-6.6,76.8-6.6z M86-5.1l9.8-4.9L83.6-5.6c-0.1,0-0.2,0.1-0.1,0.2l0.6,6C84.1,0.6,86-5.1,86-5.1z"/>
</g>
</svg>
